<?xml version="1.0" encoding="utf-8"?>
<!-- Generator: Adobe Illustrator 24.1.1, SVG Export Plug-In . SVG Version: 6.00 Build 0)  -->
<svg version="1.1" id="Capa_1" xmlns="http://www.w3.org/2000/svg" xmlns:xlink="http://www.w3.org/1999/xlink" x="0px" y="0px"
	 viewBox="0 0 612 792" style="enable-background:new 0 0 612 792;" xml:space="preserve">
<style type="text/css">
	.st0{fill:#FFFFFF;}
</style>
<g>
	<path class="st0" d="M376.84,460.4c-47.28,0-94.56,0-141.84,0c0-42.8,0-85.6,0-128.4c47.28,0,94.56,0,141.84,0
		C376.84,374.8,376.84,417.6,376.84,460.4z M320.26,397.62c0.13-0.69,0.21-1.18,0.33-1.66c0.48-1.94,0.33-3.83-0.63-5.57
		c-1.76-3.19-4.43-4.87-8.16-4.86c-9.38,0.04-18.77,0.07-28.15-0.01c-1.85-0.01-3.21,0.67-4.43,1.89
		c-5.54,5.52-11.07,11.05-16.63,16.55c-0.24,0.24-0.78,0.41-1.07,0.3c-2.48-0.91-4.74-0.58-6.65,1.26
		c-2.87,2.77-5.64,5.65-8.49,8.44c-2.63,2.58-2.14,6.73,0.26,9.05c5.03,4.85,9.93,9.82,14.83,14.8c0.68,0.7,1.21,0.76,1.97,0.35
		c0.28-0.15,0.57-0.29,0.87-0.39c2.42-0.8,2.49-1.1,0.73-2.86c-5.04-5.05-10.08-10.12-15.12-15.17c-1.04-1.05-1.05-1.66,0-2.72
		c2.65-2.65,5.32-5.29,7.97-7.94c1.11-1.11,1.33-1.17,2.42-0.09c6.84,6.76,13.66,13.54,20.48,20.32c1.87,1.86,3.71,3.74,5.56,5.61
		c0.65,0.65,0.86,1.44,0.19,2.12c-2.77,2.81-5.58,5.59-8.4,8.35c-0.74,0.72-1.57,0.74-2.34,0.01c-0.84-0.8-1.67-1.61-2.48-2.43
		c-0.61-0.62-1.22-0.76-2.03-0.29c-0.57,0.33-1.27,0.44-1.9,0.68c-0.33,0.13-0.86,0.28-0.9,0.5c-0.06,0.35,0.09,0.87,0.35,1.14
		c1.26,1.33,2.53,2.66,3.89,3.89c2.59,2.34,5.82,2.56,8.43,0.01c2.88-2.82,5.7-5.7,8.56-8.54c1.63-1.63,2.2-3.52,1.66-5.79
		c-0.1-0.43,0-1.09,0.28-1.39c2.93-3.1,5.9-6.17,8.91-9.19c0.39-0.39,1.1-0.67,1.66-0.67c8.66-0.03,17.33-0.04,25.99,0.02
		c1.87,0.01,3.29-0.71,4.54-2c2-2.06,4.04-4.09,6.06-6.12c7.49-7.52,14.98-15.03,22.46-22.56c1.75-1.76,2.5-3.99,2.34-6.41
		c-0.19-2.74-1.8-4.76-3.81-6.53c-2.55-2.25-7.01-2.42-9.43-0.43c-2.55,2.09-4.88,4.46-7.23,6.78c-3.63,3.59-7.19,7.25-10.81,10.85
		c-0.39,0.39-1.01,0.78-1.52,0.78c-3.03,0.03-6.06-0.05-9.08-0.1C321.3,397.61,320.88,397.62,320.26,397.62z M297.7,358.12
		c-0.73,9.96,7.37,18.01,16.83,18.26c9.24,0.24,17.71-6.63,17.92-17.13c0.2-9.96-6.8-17.54-17.07-17.92
		C306.3,341.01,297.76,348.2,297.7,358.12z"/>
	<path d="M320.26,397.62c0.62,0,1.04-0.01,1.47,0c3.03,0.04,6.06,0.13,9.08,0.1c0.52-0.01,1.13-0.39,1.52-0.78
		c3.62-3.6,7.18-7.26,10.81-10.85c2.35-2.32,4.68-4.68,7.23-6.78c2.42-1.99,6.88-1.82,9.43,0.43c2.01,1.77,3.62,3.78,3.81,6.53
		c0.16,2.42-0.59,4.65-2.34,6.41c-7.48,7.53-14.97,15.04-22.46,22.56c-2.03,2.04-4.06,4.06-6.06,6.12c-1.25,1.29-2.68,2.01-4.54,2
		c-8.66-0.05-17.33-0.05-25.99-0.02c-0.56,0-1.26,0.28-1.66,0.67c-3.01,3.02-5.98,6.09-8.91,9.19c-0.28,0.3-0.38,0.96-0.28,1.39
		c0.54,2.26-0.03,4.16-1.66,5.79c-2.86,2.84-5.68,5.73-8.56,8.54c-2.6,2.54-5.84,2.33-8.43-0.01c-1.36-1.23-2.63-2.56-3.89-3.89
		c-0.25-0.27-0.41-0.78-0.35-1.14c0.04-0.21,0.57-0.37,0.9-0.5c0.63-0.24,1.33-0.34,1.9-0.68c0.81-0.48,1.41-0.33,2.03,0.29
		c0.82,0.82,1.64,1.63,2.48,2.43c0.77,0.73,1.6,0.72,2.34-0.01c2.82-2.77,5.63-5.54,8.4-8.35c0.68-0.69,0.46-1.47-0.19-2.12
		c-1.85-1.87-3.69-3.76-5.56-5.61c-6.82-6.78-13.65-13.55-20.48-20.32c-1.1-1.08-1.31-1.02-2.42,0.09
		c-2.65,2.66-5.32,5.29-7.97,7.94c-1.05,1.05-1.04,1.67,0,2.72c5.04,5.06,10.08,10.12,15.12,15.17c1.76,1.77,1.69,2.06-0.73,2.86
		c-0.3,0.1-0.59,0.24-0.87,0.39c-0.75,0.41-1.28,0.35-1.97-0.35c-4.9-4.98-9.8-9.95-14.83-14.8c-2.4-2.32-2.89-6.47-0.26-9.05
		c2.85-2.79,5.62-5.67,8.49-8.44c1.9-1.84,4.16-2.17,6.65-1.26c0.29,0.11,0.84-0.07,1.07-0.3c5.56-5.5,11.09-11.03,16.63-16.55
		c1.22-1.22,2.58-1.91,4.43-1.89c9.38,0.07,18.77,0.05,28.15,0.01c3.73-0.02,6.41,1.66,8.16,4.86c0.96,1.74,1.11,3.63,0.63,5.57
		C320.46,396.44,320.39,396.93,320.26,397.62z M315.86,402.4c0-0.01,0-0.02,0-0.03c-5.67,0-11.34-0.01-17.01,0.01
		c-0.91,0-1.34-0.26-1.2-1.26c0.11-0.82,0.08-1.67,0.09-2.51c0.01-0.76,0.31-0.97,1.12-0.96c4.55,0.09,9.1,0.12,13.65,0.1
		c1.79-0.01,3.44-1.25,3.77-2.62c0.65-2.7-1.02-4.73-3.83-4.72c-9.58,0.03-19.16,0.03-28.74,0.09c-0.57,0-1.28,0.27-1.68,0.66
		c-4.84,4.75-9.63,9.55-14.45,14.33c-2.09,2.08-2.09,2.03,0.02,4.14c6.58,6.57,13.14,13.15,19.7,19.74c0.53,0.53,0.9,0.65,1.47,0.06
		c3.22-3.33,6.44-6.64,9.72-9.91c0.45-0.45,1.23-0.8,1.85-0.8c9.1-0.03,18.2,0.03,27.3,0c0.6,0,1.34-0.3,1.79-0.71
		c1.47-1.34,2.83-2.8,4.24-4.21c4.09-4.09,8.17-8.18,12.26-12.27c3.86-3.86,7.74-7.71,11.59-11.59c1.59-1.6,1.86-3.78,0.7-5.29
		c-1.77-2.32-4.34-2.62-6.57-0.47c-1.03,1-2.04,2.01-3.06,3.03c-4.78,4.8-9.55,9.62-14.36,14.4c-0.4,0.4-1.07,0.75-1.62,0.76
		C327.04,402.42,321.45,402.4,315.86,402.4z"/>
	<path d="M297.7,358.12c0.06-9.93,8.6-17.12,17.68-16.78c10.27,0.38,17.27,7.96,17.07,17.92c-0.21,10.5-8.68,17.37-17.92,17.13
		C305.07,376.14,296.98,368.09,297.7,358.12z M327.93,358.83c-0.12-6.98-5.46-12.85-12.71-12.84c-7.94,0.02-13.01,6.11-13.08,12.72
		c-0.08,7.28,5.84,13.03,13.29,12.96C322.23,371.61,327.89,365.81,327.93,358.83z"/>
	<path class="st0" d="M315.86,402.4c5.59,0,11.18,0.02,16.77-0.03c0.55-0.01,1.22-0.36,1.62-0.76c4.81-4.78,9.57-9.6,14.36-14.4
		c1.01-1.02,2.02-2.03,3.06-3.03c2.22-2.15,4.8-1.84,6.57,0.47c1.16,1.52,0.88,3.7-0.7,5.29c-3.85,3.88-7.72,7.73-11.59,11.59
		c-4.09,4.09-8.18,8.18-12.26,12.27c-1.41,1.41-2.77,2.87-4.24,4.21c-0.45,0.41-1.18,0.71-1.79,0.71c-9.1,0.02-18.2-0.03-27.3,0
		c-0.63,0-1.4,0.36-1.85,0.8c-3.28,3.26-6.5,6.58-9.72,9.91c-0.57,0.59-0.95,0.47-1.47-0.06c-6.55-6.59-13.12-13.18-19.7-19.74
		c-2.11-2.1-2.11-2.06-0.02-4.14c4.82-4.77,9.61-9.58,14.45-14.33c0.4-0.39,1.11-0.65,1.68-0.66c9.58-0.06,19.16-0.05,28.74-0.09
		c2.8-0.01,4.48,2.02,3.83,4.72c-0.33,1.37-1.98,2.61-3.77,2.62c-4.55,0.02-9.1-0.01-13.65-0.1c-0.81-0.02-1.11,0.2-1.12,0.96
		c-0.01,0.84,0.03,1.68-0.09,2.51c-0.14,1,0.29,1.26,1.2,1.26c5.67-0.02,11.34-0.01,17.01-0.01
		C315.86,402.38,315.86,402.39,315.86,402.4z"/>
	<path class="st0" d="M327.93,358.83c-0.04,6.98-5.7,12.78-12.5,12.84c-7.46,0.07-13.38-5.68-13.29-12.96
		c0.08-6.61,5.15-12.7,13.08-12.72C322.47,345.98,327.81,351.85,327.93,358.83z"/>
</g>
</svg>
