<?xml version="1.0" encoding="utf-8"?>
<!-- Generator: Adobe Illustrator 24.1.1, SVG Export Plug-In . SVG Version: 6.00 Build 0)  -->
<svg version="1.1" id="Capa_1" xmlns="http://www.w3.org/2000/svg" xmlns:xlink="http://www.w3.org/1999/xlink" x="0px" y="0px"
	 viewBox="0 0 612 792" style="enable-background:new 0 0 612 792;" xml:space="preserve">
<style type="text/css">
	.st0{fill:#FFFFFF;}
</style>
<g>
	<path class="st0" d="M376.84,474.2c-47.28,0-94.56,0-141.84,0c0-52.4,0-104.8,0-157.2c47.28,0,94.56,0,141.84,0
		C376.84,369.4,376.84,421.8,376.84,474.2z M245.2,378.8c0.31,5.75,0.05,10.94,1.27,16.11c0.93,3.97,1.39,8.08,2.81,11.94
		c1.41,3.84,2.92,7.65,4.51,11.42c1.22,2.89,2.53,5.75,3.98,8.52c1.07,2.03,2.42,3.92,3.68,5.85c1.51,2.29,2.88,4.71,4.64,6.8
		c3.35,3.99,6.88,7.84,10.43,11.66c3.39,3.64,7.37,6.51,11.7,9c3.51,2.02,7.06,3.73,11.02,4.68c7.51,1.82,14.45,0.28,21.1-3.22
		c1.89-0.99,3.69-2.16,5.51-3.29c3.05-1.88,5.98-3.91,8.4-6.61c1.14-1.27,2.47-2.38,3.66-3.61c1.44-1.49,2.89-2.97,4.21-4.56
		c1.57-1.89,3.08-3.83,4.48-5.85c2.09-3,4.15-6.03,6.06-9.14c1.2-1.95,2.15-4.06,3.14-6.14c1.45-3.05,2.97-6.07,4.2-9.21
		c1.17-2.99,2.03-6.1,2.99-9.17c0.56-1.78,1.11-3.58,1.52-5.4c0.47-2.08,0.91-4.19,1.14-6.31c0.42-3.84,0.91-7.71,0.93-11.56
		c0.04-6.47-0.84-12.83-2.7-19.09c-1.45-4.86-3.59-9.36-6.27-13.58c-2.45-3.85-5.64-7.18-9.25-9.92c-3.27-2.48-6.63-4.89-10.69-6.18
		c-4.07-1.29-7.95-3.15-12.01-4.46c-2.28-0.74-4.76-0.93-7.16-1.24c-3.24-0.42-6.49-0.86-9.75-1.03
		c-5.35-0.29-10.69,0.14-15.98,1.02c-2.44,0.41-4.9,0.79-7.26,1.48c-3.09,0.9-6.12,2.01-9.11,3.18c-2.58,1.01-5.18,2.05-7.59,3.4
		c-4.15,2.33-7.93,5.28-10.97,8.93c-2.56,3.07-4.83,6.44-6.78,9.93c-1.51,2.71-2.46,5.77-3.42,8.76c-0.79,2.45-1.47,4.99-1.8,7.54
		C245.39,372.71,245.36,376.04,245.2,378.8z"/>
	<path d="M245.2,378.8c0.17-2.76,0.19-6.09,0.62-9.37c0.33-2.55,1-5.08,1.8-7.54c0.97-2.98,1.91-6.04,3.42-8.76
		c1.95-3.49,4.22-6.86,6.78-9.93c3.04-3.65,6.82-6.6,10.97-8.93c2.41-1.35,5.01-2.39,7.59-3.4c3-1.17,6.03-2.28,9.11-3.18
		c2.36-0.69,4.82-1.07,7.26-1.48c5.29-0.88,10.63-1.3,15.98-1.02c3.26,0.17,6.51,0.61,9.75,1.03c2.4,0.31,4.88,0.51,7.16,1.24
		c4.06,1.31,7.95,3.17,12.01,4.46c4.06,1.29,7.42,3.7,10.69,6.18c3.61,2.75,6.8,6.08,9.25,9.92c2.69,4.22,4.83,8.71,6.27,13.58
		c1.86,6.26,2.73,12.62,2.7,19.09c-0.02,3.86-0.52,7.72-0.93,11.56c-0.23,2.12-0.67,4.22-1.14,6.31c-0.41,1.82-0.96,3.61-1.52,5.4
		c-0.96,3.07-1.81,6.18-2.99,9.17c-1.23,3.14-2.75,6.16-4.2,9.21c-0.99,2.08-1.94,4.18-3.14,6.14c-1.91,3.11-3.97,6.14-6.06,9.14
		c-1.4,2.01-2.91,3.96-4.48,5.85c-1.32,1.59-2.77,3.07-4.21,4.56c-1.19,1.23-2.52,2.34-3.66,3.61c-2.42,2.7-5.35,4.73-8.4,6.61
		c-1.82,1.12-3.62,2.3-5.51,3.29c-6.65,3.49-13.59,5.04-21.1,3.22c-3.96-0.96-7.51-2.67-11.02-4.68c-4.33-2.49-8.31-5.35-11.7-9
		c-3.55-3.82-7.08-7.67-10.43-11.66c-1.76-2.09-3.13-4.51-4.64-6.8c-1.27-1.92-2.61-3.81-3.68-5.85c-1.46-2.77-2.77-5.63-3.98-8.52
		c-1.59-3.77-3.09-7.58-4.51-11.42c-1.42-3.86-1.87-7.96-2.81-11.94C245.25,389.73,245.51,384.55,245.2,378.8z M359.52,380.26
		c-0.16-2.59-0.09-5.21-0.51-7.75c-0.8-4.89-1.66-9.79-3.75-14.35c-0.62-1.36-1.18-2.78-2.05-3.98c-2.27-3.16-4.28-6.58-7.43-8.99
		c-2.74-2.1-5.48-4.27-8.48-5.92c-2.8-1.54-5.94-2.43-8.94-3.6c-1.19-0.46-1.9,0.13-1.85,1.44c0.04,0.87,0.06,1.75-0.05,2.62
		c-0.4,3.24-0.7,6.5-1.32,9.69c-0.58,3-1.31,6.01-2.36,8.87c-0.78,2.13-2.12,4.07-3.33,6.02c-1.8,2.89-3.92,5.49-6.76,7.47
		c-3.73,2.62-7.8,2.9-11.83,1.26c-3.8-1.55-6.53-4.56-8.63-8.06c-1.06-1.78-1.97-3.66-2.84-5.55c-0.73-1.59-1.4-3.22-1.92-4.88
		c-0.58-1.85-1.08-3.74-1.4-5.65c-0.65-3.92-1.19-7.87-1.68-11.81c-0.14-1.16-0.52-1.67-1.65-1.23c-3.3,1.28-6.7,2.41-9.79,4.09
		c-2.55,1.38-4.65,3.56-7.07,5.22c-3.57,2.45-5.63,6.09-7.8,9.62c-1.29,2.1-2.3,4.33-3.07,6.72c-1.08,3.38-2.09,6.72-2.42,10.28
		c-0.92,9.86-0.53,19.59,2.28,29.14c0.37,1.26,1.08,2.17,2.26,2.77c0.77,0.39,1.43,0.99,2.17,1.43c1.82,1.05,3.62,2.15,5.52,3.06
		c1.35,0.65,2.86,0.96,4.26,1.51c2.92,1.14,6.52,0.43,8.53-1.97c1.39-1.66,2.68-3.45,3.72-5.34c2.05-3.76,4.25-7.27,8.28-9.28
		c2.07-1.03,4.1-1.98,6.46-1.81c1.26,0.09,1.68-0.41,1.3-1.64c-0.44-1.41-0.91-2.8-1.36-4.21c-0.33-1.05,0.44-2.65,1.42-2.99
		c1.22-0.42,2.41,0.17,2.84,1.48c0.29,0.87,0.44,1.79,0.76,2.64c1.37,3.6,2.2,7.31,2.53,11.14c0.25,2.93-1.08,4.92-3.8,6.09
		c-1.75,0.75-3.44,1.64-5.14,2.5c-0.89,0.45-1.13,1.19-0.77,2.11c0.66,1.69,4.35,3.21,5.97,2.38c1.06-0.55,1.96-0.41,2.73,0.35
		c0.49,0.48,0.72,1.22,1.18,1.74c0.53,0.59,1.25,1.53,1.8,1.47c0.66-0.07,1.26-0.99,1.82-1.61c0.31-0.34,0.44-0.84,0.71-1.23
		c0.62-0.9,1.45-1.18,2.5-0.79c2.68,1.01,4.71-0.36,6.64-1.9c0.81-0.64,0.62-2.05-0.24-2.46c-1.46-0.71-2.95-1.33-4.42-2
		c-0.9-0.42-1.83-0.81-2.67-1.33c-1.42-0.88-2.33-2.31-2.29-3.86c0.07-2.53,0.4-5.09,0.95-7.57c0.59-2.63,1.57-5.17,2.36-7.75
		c0.43-1.41,1.79-1.95,3.11-1.2c1.1,0.63,1.53,1.84,1.07,3.24c-0.38,1.17-0.85,2.32-1.3,3.48c-0.53,1.37-0.17,1.91,1.26,2.06
		c4.95,0.53,8.72,3.03,11.44,7.14c1.7,2.57,3.19,5.31,5.04,7.77c2.46,3.26,4.83,4.95,9.61,3.24c1.05-0.38,2.07-0.86,3.15-1.1
		c2.65-0.6,4.74-2.21,6.92-3.64c1.36-0.89,2.65-1.89,3.96-2.86c0.48-0.36,1.16-0.7,1.33-1.19c0.49-1.41,0.82-2.89,1.1-4.36
		C358.68,391.07,359.63,385.73,359.52,380.26z M296.86,400.12c-0.08-0.23-0.16-0.45-0.25-0.68c-1.41,0.25-2.9,0.3-4.22,0.8
		c-2.18,0.82-3.69,2.58-5.05,4.43c-1.74,2.38-3.58,4.65-5.83,6.61c-2.35,2.04-4.96,2.99-8.04,3.04c-1.75,0.03-3.26-0.54-4.84-1.1
		c-3.56-1.26-6.76-3.13-9.65-5.54c-0.66-0.54-1.36-1.03-2.04-1.54c-0.1,0.07-0.2,0.14-0.3,0.22c0.32,0.96,0.59,1.94,0.97,2.87
		c1.29,3.07,2.54,6.16,3.95,9.17c1.3,2.76,2.62,5.53,4.24,8.1c3.04,4.83,6,9.74,10.12,13.81c2.71,2.67,5.02,5.7,7.89,8.28
		c3.86,3.47,8.24,5.95,12.87,8.11c1.02,0.48,1.69,0.2,2.24-0.79c0.63-1.15,1.46-2.18,2.09-3.33c0.99-1.79,2.49-3.4,1.54-5.82
		c-0.46-1.16,0.31-2.23,1.41-2.89c1.06-0.64,2.1-0.86,3.27-0.2c1.16,0.65,1.69,1.54,1.39,2.85c-0.41,1.79-0.08,3.37,1.21,4.72
		c0.13,0.14,0.19,0.35,0.3,0.52c0.87,1.41,1.74,2.82,2.62,4.23c0.44,0.71,1.05,0.98,1.84,0.6c1.68-0.8,3.41-1.55,5.03-2.46
		c4.43-2.5,8.41-5.57,11.82-9.39c2.04-2.28,4.35-4.32,6.28-6.69c2.25-2.77,4.29-5.73,6.28-8.7c1.52-2.28,2.98-4.63,4.19-7.09
		c1.73-3.53,3.24-7.16,4.78-10.78c1.06-2.48,2.01-5.01,2.98-7.53c0.06-0.16-0.07-0.4-0.15-0.74c-0.32,0.3-0.55,0.46-0.7,0.67
		c-1.64,2.43-3.96,4.13-6.35,5.71c-1.18,0.78-2.45,1.47-3.75,2.05c-1.94,0.87-3.88,1.84-5.93,2.36c-2.49,0.63-5.07,0.66-7.37-0.88
		c-1.51-1.01-3.22-1.83-4.45-3.1c-2.09-2.16-3.91-4.59-5.77-6.97c-1.57-2-3.64-3.05-6.07-3.47c-0.51-0.09-1.08,0.14-1.62,0.23
		c-0.01,0.14-0.03,0.28-0.04,0.42c0.4,0.2,0.78,0.52,1.2,0.57c2.01,0.23,3.57,1.32,5.04,2.56c1.42,1.2,2.93,4.28,1.91,6.46
		c-0.79,1.69-1.93,2.92-3.47,3.78c-1.82,1.01-3.61,2.21-5.91,1.76c-0.97-0.19-1.62,0.41-2.35,1.08c-1.14,1.04-2.45,2.09-3.88,2.58
		c-2.02,0.7-3.61-0.56-4.83-2.08c-0.88-1.1-1.85-1.66-3.29-1.5c-0.65,0.08-1.37,0.01-2-0.19c-2.39-0.77-4.46-2-6.01-4.07
		c-1.54-2.06-1.61-5.21-0.06-6.98c1.42-1.63,3.02-2.88,5.27-3.17C295.89,400.95,296.37,400.43,296.86,400.12z M305.46,367.39
		c0.02,0.06,0.04,0.13,0.06,0.19c1.65-0.35,3.6-0.26,4.91-1.12c3.77-2.48,6.58-5.94,8.66-9.98c1.51-2.92,2.53-5.97,3.22-9.18
		c0.77-3.62,2.03-7.12,2.18-10.87c0.05-1.33-0.26-1.96-1.58-2.2c-1.33-0.24-2.68-0.41-4.02-0.62c-2.2-0.34-4.39-0.84-6.6-0.98
		c-2.82-0.18-5.66-0.09-8.5-0.05c-3.14,0.05-6.29-0.2-9.38,0.71c-1.28,0.38-2.69,0.3-4.01,0.56c-1.09,0.21-2.15,0.57-3.2,0.95
		c-0.65,0.24-0.81,0.75-0.59,1.46c0.26,0.83,0.42,1.7,0.54,2.57c0.77,5.39,1.69,10.74,4.23,15.66c1.68,3.27,3.5,6.44,6.03,9.15
		c1.35,1.44,2.8,2.81,4.72,3.38C303.2,367.33,304.35,367.28,305.46,367.39z"/>
	<path class="st0" d="M359.52,380.26c0.1,5.47-0.85,10.81-1.89,16.14c-0.29,1.47-0.62,2.95-1.1,4.36c-0.17,0.49-0.85,0.83-1.33,1.19
		c-1.31,0.97-2.6,1.97-3.96,2.86c-2.18,1.44-4.28,3.04-6.92,3.64c-1.08,0.24-2.1,0.73-3.15,1.1c-4.78,1.71-7.16,0.02-9.61-3.24
		c-1.85-2.46-3.34-5.2-5.04-7.77c-2.72-4.11-6.48-6.6-11.44-7.14c-1.44-0.15-1.8-0.69-1.26-2.06c0.45-1.15,0.91-2.3,1.3-3.48
		c0.46-1.4,0.03-2.61-1.07-3.24c-1.32-0.76-2.68-0.22-3.11,1.2c-0.79,2.58-1.78,5.12-2.36,7.75c-0.55,2.47-0.88,5.03-0.95,7.57
		c-0.04,1.56,0.87,2.99,2.29,3.86c0.84,0.52,1.77,0.91,2.67,1.33c1.47,0.68,2.97,1.3,4.42,2c0.86,0.42,1.04,1.82,0.24,2.46
		c-1.93,1.54-3.96,2.91-6.64,1.9c-1.05-0.4-1.88-0.12-2.5,0.79c-0.27,0.39-0.4,0.89-0.71,1.23c-0.56,0.62-1.16,1.54-1.82,1.61
		c-0.55,0.06-1.26-0.88-1.8-1.47c-0.46-0.52-0.69-1.26-1.18-1.74c-0.77-0.76-1.67-0.89-2.73-0.35c-1.62,0.84-5.31-0.69-5.97-2.38
		c-0.36-0.93-0.12-1.67,0.77-2.11c1.7-0.86,3.39-1.75,5.14-2.5c2.72-1.16,4.05-3.16,3.8-6.09c-0.33-3.83-1.16-7.54-2.53-11.14
		c-0.32-0.85-0.48-1.77-0.76-2.64c-0.43-1.3-1.61-1.9-2.84-1.48c-0.99,0.34-1.76,1.94-1.42,2.99c0.45,1.4,0.92,2.8,1.36,4.21
		c0.38,1.22-0.05,1.72-1.3,1.64c-2.37-0.17-4.4,0.78-6.46,1.81c-4.03,2.01-6.22,5.53-8.28,9.28c-1.04,1.9-2.33,3.68-3.72,5.34
		c-2.01,2.41-5.61,3.11-8.53,1.97c-1.4-0.55-2.91-0.86-4.26-1.51c-1.89-0.91-3.7-2.01-5.52-3.06c-0.75-0.43-1.41-1.03-2.17-1.43
		c-1.18-0.61-1.89-1.51-2.26-2.77c-2.82-9.56-3.2-19.28-2.28-29.14c0.33-3.57,1.34-6.91,2.42-10.28c0.77-2.39,1.78-4.62,3.07-6.72
		c2.17-3.54,4.23-7.17,7.8-9.62c2.42-1.66,4.52-3.83,7.07-5.22c3.09-1.68,6.49-2.81,9.79-4.09c1.13-0.44,1.5,0.07,1.65,1.23
		c0.49,3.95,1.04,7.89,1.68,11.81c0.32,1.91,0.82,3.8,1.4,5.65c0.52,1.66,1.19,3.29,1.92,4.88c0.87,1.89,1.77,3.77,2.84,5.55
		c2.09,3.5,4.83,6.52,8.63,8.06c4.03,1.64,8.1,1.36,11.83-1.26c2.83-1.98,4.96-4.59,6.76-7.47c1.21-1.95,2.55-3.89,3.33-6.02
		c1.05-2.86,1.78-5.87,2.36-8.87c0.62-3.2,0.92-6.46,1.32-9.69c0.11-0.86,0.09-1.75,0.05-2.62c-0.06-1.32,0.65-1.91,1.85-1.44
		c3,1.16,6.15,2.06,8.94,3.6c3.01,1.65,5.75,3.82,8.48,5.92c3.15,2.41,5.15,5.83,7.43,8.99c0.86,1.2,1.43,2.62,2.05,3.98
		c2.08,4.56,2.94,9.47,3.75,14.35C359.43,375.05,359.37,377.67,359.52,380.26z M325.51,372.55c0.5-0.19,0.99-0.45,1.5-0.57
		c1.88-0.46,3.75-0.87,5.57-1.63c2.67-1.11,5.1-2.55,7.45-4.19c1.92-1.34,3.09-3.29,4.36-5.16c1.37-2.03,2.84-3.93,5.1-5.08
		c0.7-0.36,1.8-0.79,1.18-1.82c-0.56-0.93-1.56-0.36-2.38-0.07c-0.04,0.01-0.07,0.04-0.1,0.06c-1.57,1.29-3.29,2.42-4.66,3.89
		c-3.61,3.86-7.82,6.37-13.22,6.57c-2.31,0.09-4.62,0.22-6.94,0.33c-1.76,0.08-3.11,0.83-4.11,2.29c-1.33,1.95,0.26,5.83,2.88,5.6
		c0.73-0.06,1.47-0.01,2.45-0.01c-0.29,0.4-0.35,0.54-0.46,0.63c-0.24,0.21-0.48,0.46-0.76,0.58c-2.53,1.05-3.99,3.35-5.9,5.11
		c-1.25,1.16-1.01,2.28,0.38,3.27c0.42,0.3,0.84,0.61,1.27,0.89c5.04,3.31,10.29,3.99,15.84,1.3c3.26-1.58,5.87-3.93,8.21-6.63
		c0.99-1.14,0.77-2.43-0.52-3.23c-2.45-1.53-5.13-2.36-7.98-2.65C331.6,371.73,328.57,372.01,325.51,372.55z M282.07,386.19
		c0.68,0,1.36,0.02,2.03,0c3.04-0.11,5.57-1.61,8.01-3.16c2.21-1.41,2.37-2.72,0.62-4.46c-2.72-2.7-5.6-5.16-9.53-6.04
		c-5.35-1.21-10.38-0.5-15.16,2.1c-1.79,0.97-1.88,1.76-0.62,3.41c0.19,0.25,0.41,0.49,0.64,0.71c0.95,0.92,1.87,1.85,2.86,2.73
		C274.1,384.28,277.77,386.02,282.07,386.19z M292.7,369.61c-0.27-2.92-1.18-4.48-4.85-4.71c-2.67-0.17-5.34-0.24-7.99-0.5
		c-3.44-0.34-6.58-1.43-9.2-3.84c-2.45-2.25-4.98-4.41-7.49-6.59c-0.65-0.56-1.43-0.92-2.06-0.03c-0.61,0.86,0,1.34,0.71,1.8
		c1.72,1.1,3.19,2.43,4.37,4.16c1.38,2.01,2.99,3.9,4.67,5.67c0.91,0.96,2.21,1.53,3.27,2.36c2.18,1.7,4.77,2.51,7.33,3.34
		c2.07,0.68,4.25,1.02,6.36,1.6C289.82,373.42,292.7,371.55,292.7,369.61z"/>
	<path class="st0" d="M296.86,400.12c-0.5,0.31-0.97,0.84-1.5,0.9c-2.25,0.29-3.85,1.54-5.27,3.17c-1.55,1.77-1.48,4.92,0.06,6.98
		c1.55,2.07,3.62,3.3,6.01,4.07c0.63,0.2,1.35,0.27,2,0.19c1.43-0.16,2.41,0.4,3.29,1.5c1.22,1.53,2.81,2.78,4.83,2.08
		c1.43-0.49,2.74-1.54,3.88-2.58c0.73-0.67,1.38-1.27,2.35-1.08c2.3,0.45,4.09-0.75,5.91-1.76c1.54-0.86,2.68-2.09,3.47-3.78
		c1.02-2.18-0.49-5.27-1.91-6.46c-1.48-1.24-3.03-2.32-5.04-2.56c-0.42-0.05-0.8-0.37-1.2-0.57c0.01-0.14,0.03-0.28,0.04-0.42
		c0.54-0.08,1.11-0.31,1.62-0.23c2.43,0.42,4.5,1.47,6.07,3.47c1.86,2.37,3.68,4.8,5.77,6.97c1.23,1.28,2.94,2.1,4.45,3.1
		c2.3,1.54,4.88,1.51,7.37,0.88c2.05-0.51,3.99-1.49,5.93-2.36c1.3-0.58,2.56-1.27,3.75-2.05c2.39-1.58,4.7-3.28,6.35-5.71
		c0.15-0.22,0.38-0.37,0.7-0.67c0.07,0.34,0.21,0.58,0.15,0.74c-0.98,2.52-1.93,5.05-2.98,7.53c-1.54,3.62-3.05,7.26-4.78,10.78
		c-1.21,2.46-2.67,4.81-4.19,7.09c-1.99,2.97-4.02,5.93-6.28,8.7c-1.92,2.37-4.24,4.41-6.28,6.69c-3.41,3.81-7.39,6.88-11.82,9.39
		c-1.62,0.92-3.34,1.66-5.03,2.46c-0.78,0.37-1.39,0.11-1.84-0.6c-0.88-1.41-1.75-2.82-2.62-4.23c-0.1-0.17-0.16-0.38-0.3-0.52
		c-1.29-1.35-1.62-2.93-1.21-4.72c0.3-1.31-0.23-2.2-1.39-2.85c-1.17-0.66-2.21-0.44-3.27,0.2c-1.1,0.67-1.87,1.73-1.41,2.89
		c0.95,2.42-0.55,4.03-1.54,5.82c-0.63,1.15-1.46,2.18-2.09,3.33c-0.55,0.99-1.22,1.27-2.24,0.79c-4.63-2.16-9.01-4.64-12.87-8.11
		c-2.86-2.57-5.18-5.6-7.89-8.28c-4.13-4.08-7.08-8.98-10.12-13.81c-1.62-2.57-2.94-5.34-4.24-8.1c-1.42-3.01-2.67-6.1-3.95-9.17
		c-0.39-0.93-0.65-1.91-0.97-2.87c0.1-0.07,0.2-0.14,0.3-0.22c0.68,0.51,1.38,1,2.04,1.54c2.9,2.41,6.09,4.28,9.65,5.54
		c1.58,0.56,3.08,1.13,4.84,1.1c3.09-0.06,5.7-1,8.04-3.04c2.25-1.96,4.09-4.23,5.83-6.61c1.35-1.85,2.86-3.6,5.05-4.43
		c1.32-0.5,2.81-0.55,4.22-0.8C296.7,399.66,296.78,399.89,296.86,400.12z M297.25,425.93c-3.34,0.03-6.6,0.63-9.5,2.15
		c-2.69,1.41-5.15,3.29-7.63,5.08c-1.86,1.34-1.8,2.83,0.03,4.21c0.41,0.31,0.86,0.59,1.33,0.79c2.67,1.17,6.01-1.02,6.06-3.93
		c0.01-0.35,0.16-0.83,0.42-1.03c0.72-0.55,1.47-1.22,2.31-1.4c2.48-0.54,5-0.97,7.52-1.24c1.35-0.14,2.63,0.37,3.78,1.24
		c1.1,0.83,2.32,1.52,3.58,2.09c0.49,0.22,1.27,0.06,1.81-0.18c0.64-0.28,1.14-0.84,1.72-1.25c1.36-0.96,2.71-1.8,4.51-1.93
		c2.75-0.2,5.3,0.51,7.83,1.31c1.18,0.38,2.39,1.12,2.52,2.59c0.21,2.23,1.69,3.27,3.54,3.92c1.7,0.6,3.14-0.2,4.39-1.26
		c1.48-1.24,1.42-2.73-0.13-3.9c-2.5-1.89-5.11-3.59-7.92-5.01c-4.32-2.17-8.8-2.71-13.46-1.58c-0.98,0.24-1.96,0.89-2.73,1.58
		c-1.4,1.26-1.72,1.28-3.17-0.01c-0.72-0.64-1.57-1.27-2.48-1.53C300.21,426.24,298.71,426.16,297.25,425.93z"/>
	<path class="st0" d="M305.46,367.39c-1.11-0.11-2.26-0.07-3.31-0.38c-1.93-0.57-3.37-1.94-4.72-3.38c-2.54-2.7-4.35-5.88-6.03-9.15
		c-2.53-4.92-3.46-10.27-4.23-15.66c-0.12-0.86-0.28-1.73-0.54-2.57c-0.22-0.71-0.06-1.23,0.59-1.46c1.04-0.38,2.11-0.74,3.2-0.95
		c1.32-0.26,2.73-0.18,4.01-0.56c3.09-0.91,6.25-0.66,9.38-0.71c2.83-0.04,5.67-0.12,8.5,0.05c2.21,0.14,4.4,0.64,6.6,0.98
		c1.34,0.21,2.69,0.38,4.02,0.62c1.31,0.24,1.63,0.87,1.58,2.2c-0.15,3.75-1.41,7.26-2.18,10.87c-0.68,3.22-1.71,6.26-3.22,9.18
		c-2.08,4.04-4.9,7.49-8.66,9.98c-1.31,0.87-3.26,0.78-4.91,1.12C305.5,367.52,305.48,367.46,305.46,367.39z"/>
	<path d="M325.51,372.55c3.06-0.54,6.09-0.82,9.16-0.5c2.85,0.3,5.54,1.13,7.98,2.65c1.28,0.8,1.5,2.09,0.52,3.23
		c-2.34,2.7-4.96,5.05-8.21,6.63c-5.55,2.69-10.79,2.01-15.84-1.3c-0.43-0.28-0.85-0.59-1.27-0.89c-1.39-0.99-1.63-2.11-0.38-3.27
		c1.9-1.76,3.37-4.06,5.9-5.11c0.28-0.12,0.52-0.37,0.76-0.58c0.11-0.09,0.17-0.23,0.46-0.63c-0.98,0-1.72-0.05-2.45,0.01
		c-2.62,0.22-4.21-3.65-2.88-5.6c1-1.47,2.36-2.21,4.11-2.29c2.31-0.11,4.62-0.24,6.94-0.33c5.4-0.2,9.6-2.71,13.22-6.57
		c1.37-1.47,3.1-2.6,4.66-3.89c0.03-0.03,0.06-0.05,0.1-0.06c0.81-0.29,1.81-0.86,2.38,0.07c0.63,1.03-0.48,1.46-1.18,1.82
		c-2.26,1.15-3.72,3.05-5.1,5.08c-1.27,1.87-2.44,3.81-4.36,5.16c-2.35,1.64-4.78,3.08-7.45,4.19c-1.82,0.76-3.69,1.17-5.57,1.63
		C326.5,372.1,326.01,372.36,325.51,372.55z"/>
	<path d="M282.07,386.19c-4.3-0.17-7.97-1.91-11.15-4.72c-0.99-0.87-1.91-1.81-2.86-2.73c-0.23-0.22-0.44-0.46-0.64-0.71
		c-1.27-1.66-1.17-2.44,0.62-3.41c4.78-2.6,9.82-3.31,15.16-2.1c3.93,0.89,6.81,3.34,9.53,6.04c1.75,1.74,1.59,3.05-0.62,4.46
		c-2.44,1.55-4.97,3.05-8.01,3.16C283.43,386.21,282.75,386.19,282.07,386.19z"/>
	<path d="M292.7,369.61c-0.01,1.94-2.88,3.81-4.89,3.26c-2.11-0.58-4.29-0.92-6.36-1.6c-2.56-0.83-5.15-1.64-7.33-3.34
		c-1.06-0.83-2.36-1.4-3.27-2.36c-1.68-1.78-3.29-3.66-4.67-5.67c-1.19-1.73-2.65-3.06-4.37-4.16c-0.71-0.45-1.32-0.94-0.71-1.8
		c0.64-0.89,1.42-0.53,2.06,0.03c2.51,2.18,5.05,4.34,7.49,6.59c2.62,2.41,5.77,3.5,9.2,3.84c2.66,0.26,5.33,0.33,7.99,0.5
		C291.52,365.13,292.44,366.69,292.7,369.61z"/>
	<path d="M297.25,425.93c1.46,0.22,2.95,0.31,4.35,0.72c0.9,0.26,1.76,0.89,2.48,1.53c1.44,1.29,1.76,1.27,3.17,0.01
		c0.77-0.69,1.74-1.34,2.73-1.58c4.66-1.14,9.15-0.59,13.46,1.58c2.81,1.41,5.42,3.12,7.92,5.01c1.55,1.17,1.61,2.66,0.13,3.9
		c-1.26,1.06-2.69,1.86-4.39,1.26c-1.84-0.65-3.33-1.69-3.54-3.92c-0.14-1.48-1.34-2.22-2.52-2.59c-2.53-0.8-5.08-1.51-7.83-1.31
		c-1.8,0.13-3.15,0.97-4.51,1.93c-0.58,0.41-1.09,0.97-1.72,1.25c-0.54,0.24-1.32,0.4-1.81,0.18c-1.25-0.56-2.48-1.26-3.58-2.09
		c-1.15-0.87-2.43-1.38-3.78-1.24c-2.53,0.27-5.04,0.7-7.52,1.24c-0.84,0.18-1.59,0.85-2.31,1.4c-0.26,0.2-0.41,0.68-0.42,1.03
		c-0.05,2.91-3.38,5.1-6.06,3.93c-0.47-0.21-0.92-0.48-1.33-0.79c-1.83-1.38-1.9-2.87-0.03-4.21c2.48-1.78,4.94-3.67,7.63-5.08
		C290.66,426.56,293.91,425.97,297.25,425.93z"/>
</g>
</svg>
