<?xml version="1.0" encoding="utf-8"?>
<!-- Generator: Adobe Illustrator 24.1.1, SVG Export Plug-In . SVG Version: 6.00 Build 0)  -->
<svg version="1.1" id="Capa_1" xmlns="http://www.w3.org/2000/svg" xmlns:xlink="http://www.w3.org/1999/xlink" x="0px" y="0px"
	 viewBox="0 0 612 792" style="enable-background:new 0 0 612 792;" xml:space="preserve">
<style type="text/css">
	.st0{fill:#FFFFFF;}
</style>
<g>
	<path class="st0" d="M235,459.72c0-42.23,0-84.47,0-126.72c47.27,0,94.54,0,141.84,0c0,42.23,0,84.47,0,126.72
		C329.57,459.72,282.28,459.72,235,459.72z M368.28,421.84c0.07-16.64-13.24-30.11-30.13-29.92c-16.62,0.19-29.44,13.06-29.56,29.59
		c-0.12,17.03,13.1,29.27,28.31,30.03C354.86,452.45,368.49,437.81,368.28,421.84z M305.71,429.11c-0.27-2.31-0.49-4.42-0.79-6.53
		c-0.03-0.19-0.59-0.44-0.9-0.44c-6.99-0.11-13.97-0.24-20.96-0.27c-9.94-0.05-19.89-0.03-29.83,0c-1.1,0-1.51-0.2-1.48-1.43
		c0.15-7.34,0.22-14.69,0.27-22.03c0.1-14.85,0.19-29.7,0.26-44.55c0-0.91,0.24-1.29,1.23-1.24c2.27,0.11,4.55,0.14,6.82,0.14
		c0.34,0,0.97-0.34,0.98-0.54c0.07-2.14,0.04-4.28,0.04-6.49c-1.06,0-1.93-0.01-2.8,0c-2.46,0.02-4.94-0.14-7.38,0.11
		c-3.23,0.34-5.86,3.44-5.9,6.71c-0.11,7.46-0.19,14.93-0.26,22.39c-0.09,9.1-0.19,18.2-0.24,27.3c-0.04,6.43,0.04,12.86-0.06,19.28
		c-0.06,4.07,3.03,7.34,7.44,7.38c14.94,0.13,29.87,0.16,44.81,0.22C299.81,429.12,302.68,429.11,305.71,429.11z M327.46,342.93
		c0,4.12,0.01,8.18-0.03,12.25c0,0.33-0.3,0.85-0.58,0.95c-0.88,0.33-1.08,1.02-1.16,1.79c-0.07,0.75-0.05,1.52-0.03,2.27
		c0.04,1.35,0.65,1.95,2.02,1.96c2.27,0.02,4.55,0.02,6.83,0.02c1.16,0,1.76-0.61,1.77-1.75c0-0.64-0.05-1.28,0.02-1.91
		c0.17-1.41-0.33-2.32-1.83-2.58c0-0.5,0.05-0.94-0.01-1.37c-0.17-1.22,0.33-1.58,1.54-1.54c2.55,0.09,5.11,0.03,7.66,0.03
		c1.63,0,1.64,0,1.63,1.59c-0.07,11.09-0.15,22.18-0.19,33.27c0,0.4,0.28,1.05,0.59,1.16c2.05,0.72,4.13,1.32,6.32,1.99
		c0.04-0.38,0.09-0.72,0.1-1.06c0.09-4.47,0.21-8.93,0.24-13.4c0.04-7.98,0.02-15.96,0.01-23.94c0-0.43-0.04-0.88-0.16-1.29
		c-0.91-3.2-3.72-5.31-7.11-5.33c-2.67-0.02-5.35,0-8.02,0c-2.29,0-2.27,0-2.42-2.25c-0.02-0.3-0.34-0.82-0.53-0.82
		C331.98,342.91,329.84,342.93,327.46,342.93z M317.02,371.7c-0.1,0.3-0.17,0.44-0.19,0.6c-0.22,1.92-0.61,3.85-0.61,5.77
		c0.01,2.88,0.25,5.77,0.51,8.65c0.04,0.39,0.74,1,1.17,1.04c2.92,0.27,5.85,0.56,8.78,0.55c3.13-0.01,6.25-0.32,9.38-0.52
		c0.8-0.05,1.19-0.5,1.22-1.33c0.04-1.11,0.01-2.24,0.24-3.31c0.73-3.51-0.12-6.95-0.31-10.42c-0.02-0.35-0.5-0.94-0.81-0.96
		c-3.44-0.31-6.88-0.71-10.32-0.73C323.08,371.02,320.08,371.46,317.02,371.7z M270.26,388.54c3.02-0.24,6.06-0.48,9.11-0.74
		c0.75-0.06,1.11-0.54,1.16-1.28c0.08-1.23,0.05-2.48,0.29-3.67c0.69-3.43-0.1-6.79-0.36-10.18c-0.03-0.33-0.55-0.87-0.89-0.9
		c-3.08-0.31-6.16-0.73-9.25-0.73c-3.04,0-6.08,0.5-9.13,0.68c-0.91,0.05-1.18,0.5-1.29,1.22c-0.05,0.35,0.01,0.72-0.05,1.07
		c-0.78,4.19-0.41,8.38,0.04,12.56c0.07,0.64,0.32,1.19,1.18,1.24C264.12,388.02,267.17,388.29,270.26,388.54z M298.48,388.53
		c3.07-0.24,6.15-0.49,9.23-0.74c0.61-0.05,1.03-0.28,1.05-1.03c0.02-0.78,0.22-1.56,0.29-2.34c0.37-3.96,0.47-7.91-0.34-11.84
		c-0.07-0.31-0.36-0.76-0.61-0.82c-0.92-0.2-1.87-0.28-2.81-0.35c-1.54-0.11-3.09-0.24-4.64-0.26c-2.54-0.03-5.09-0.02-7.62,0.08
		c-1.3,0.05-2.59,0.29-3.87,0.52c-0.31,0.06-0.78,0.38-0.82,0.63c-0.2,1.49-0.43,3-0.41,4.49c0.05,3.25,0.28,6.5,0.35,9.76
		c0.02,0.9,0.47,1.1,1.16,1.15C292.43,388.05,295.43,388.28,298.48,388.53z M281.16,404.07c-0.22-2.35-0.4-4.65-0.69-6.92
		c-0.05-0.36-0.57-0.92-0.92-0.95c-3.55-0.33-7.12-0.61-10.68-0.82c-0.97-0.06-1.96,0.19-2.95,0.29c-1.54,0.16-3.07,0.39-4.61,0.43
		c-1.18,0.03-1.35,0.75-1.43,1.63c-0.12,1.42-0.33,2.84-0.31,4.26c0.05,3.04,0.2,6.09,0.41,9.12c0.03,0.39,0.61,0.91,1.05,1.05
		c0.78,0.25,1.63,0.34,2.45,0.36c3.54,0.11,7.08,0.23,10.62,0.21c1.73-0.01,3.47-0.25,5.19-0.54c0.46-0.08,1.12-0.66,1.17-1.08
		C280.78,408.76,280.94,406.39,281.16,404.07z M297.84,412.88c2.99-0.13,5.27-0.19,7.53-0.37c0.4-0.03,0.92-0.51,1.11-0.92
		c0.62-1.29,1.09-2.64,1.65-3.96c0.37-0.87,1.07-1.72,1.1-2.59c0.09-2.3-0.01-4.62-0.27-6.9c-0.07-0.62,0.26-1.84-1.03-1.97
		c-2.56-0.27-5.12-0.67-7.69-0.76c-2.46-0.08-4.93,0.14-7.39,0.3c-1.26,0.08-2.52,0.27-3.76,0.5c-0.3,0.05-0.72,0.44-0.76,0.71
		c-0.2,1.45-0.43,2.92-0.41,4.38c0.05,3.18,0.28,6.35,0.36,9.53c0.02,1.01,0.54,1.37,1.37,1.44
		C292.61,412.5,295.58,412.71,297.84,412.88z M306.34,342.77c-0.02,0.34-0.05,0.57-0.05,0.8c0,3.67-0.03,7.34,0.02,11.01
		c0.01,0.77-0.18,1.2-0.87,1.6c-0.44,0.25-0.82,0.9-0.9,1.42c-0.14,0.94-0.11,1.91-0.02,2.86c0.07,0.81,0.49,1.43,1.46,1.43
		c2.55-0.01,5.11,0.01,7.66-0.02c0.96-0.01,1.46-0.56,1.46-1.52c0.01-0.72-0.05-1.44,0-2.15c0.07-1.05-0.26-1.7-1.18-2.37
		c-0.52-0.38-0.5-1.6-0.54-2.45c-0.01-0.16,0.85-0.51,1.31-0.51c2.63-0.05,5.27-0.05,7.9-0.01c0.83,0.01,1.11-0.26,1.08-1.1
		c-0.06-1.59-0.06-3.19,0-4.79c0.03-0.89-0.3-1.2-1.18-1.19c-2.39,0.04-4.79,0.03-7.18,0.01c-1.97-0.02-2.03,0.41-1.98-1.98
		c0.01-0.34-0.37-0.97-0.59-0.98C310.62,342.74,308.51,342.77,306.34,342.77z M285.53,342.77c0,0.54,0,0.89,0,1.24
		c0,3.47,0.03,6.94-0.01,10.42c-0.01,0.49-0.21,1.24-0.55,1.41c-1.01,0.52-1.19,1.27-1.12,2.27c0.05,0.71,0.02,1.44-0.01,2.15
		c-0.05,1.04,0.42,1.61,1.45,1.62c2.47,0.03,4.95,0.01,7.42,0.03c1.12,0.01,1.58-0.66,1.66-1.64c0.07-0.83,0.15-1.71-0.03-2.5
		c-0.15-0.63-0.67-1.18-1.07-1.73c-0.19-0.27-0.65-0.47-0.66-0.72c-0.04-0.78,0.08-1.57,0.15-2.42c0.4-0.02,0.74-0.06,1.09-0.06
		c2.6-0.01,5.19-0.03,7.79,0.01c0.85,0.01,1.11-0.26,1.07-1.1c-0.06-1.63-0.07-3.27,0-4.91c0.04-0.87-0.28-1.08-1.1-1.07
		c-2.51,0.05-5.03,0.02-7.55,0.01c-0.46,0-0.92-0.04-1.48-0.07c0-1.04,0-1.94,0-2.94c-0.5,0-0.9,0-1.29,0
		C289.42,342.77,287.55,342.77,285.53,342.77z M264.67,355.72c-1.66,0.21-1.92,1.32-1.77,2.7c0.06,0.51,0.01,1.04,0.01,1.55
		c0,1.56,0.39,1.95,2,1.96c1.48,0.01,2.95,0,4.43,0c4.26,0.02,4.28-0.01,4.15-4.22c0-0.08,0.03-0.17,0-0.24
		c-0.21-0.41-0.35-1.06-0.67-1.18c-1.21-0.43-1.07-1.34-1.13-2.3c-0.06-1,0.33-1.21,1.23-1.19c2.59,0.05,5.19,0.02,7.78,0.02
		c0.52,0,1.08,0.08,1.08-0.72c-0.01-1.91,0.02-3.83-0.03-5.74c-0.01-0.2-0.43-0.55-0.66-0.56c-1.47-0.05-2.94-0.03-4.42-0.03
		c-1.62,0-3.24,0-4.97,0c0-0.86,0.05-1.57-0.03-2.28c-0.03-0.26-0.35-0.7-0.54-0.7c-2.14-0.05-4.27-0.03-6.47-0.03
		C264.67,347.18,264.67,351.4,264.67,355.72z"/>
	<path d="M368.28,421.84c0.2,15.97-13.42,30.61-31.38,29.71c-15.21-0.76-28.43-13-28.31-30.03c0.12-16.53,12.94-29.4,29.56-29.59
		C355.04,391.74,368.35,405.21,368.28,421.84z M353.4,414.44c0.02-2.09-0.87-3.41-2.37-4.01c-1.65-0.66-3.05-0.08-4.24,1.09
		c-2.07,2.05-4.09,4.13-6.14,6.2c-1.74,1.76-3.47,3.52-5.23,5.25c-0.38,0.38-0.78,0.99-1.47,0.27c-1.24-1.29-2.55-2.51-3.8-3.78
		c-1.72-1.75-3.87-1.88-5.48-0.3c-1.59,1.57-1.5,3.79,0.2,5.47c2.63,2.6,5.25,5.21,7.87,7.82c1.15,1.14,2.36,1.23,3.45,0.15
		c5.32-5.28,10.65-10.56,15.91-15.91C352.79,415.97,353.14,414.9,353.4,414.44z"/>
	<path d="M305.71,429.11c-3.03,0-5.9,0.01-8.77,0c-14.94-0.06-29.87-0.09-44.81-0.22c-4.41-0.04-7.51-3.31-7.44-7.38
		c0.1-6.43,0.02-12.86,0.06-19.28c0.06-9.1,0.15-18.2,0.24-27.3c0.07-7.46,0.15-14.93,0.26-22.39c0.05-3.27,2.67-6.37,5.9-6.71
		c2.44-0.25,4.92-0.09,7.38-0.11c0.87-0.01,1.74,0,2.8,0c0,2.22,0.03,4.36-0.04,6.49c-0.01,0.2-0.64,0.54-0.98,0.54
		c-2.27,0-4.55-0.02-6.82-0.14c-0.99-0.05-1.22,0.33-1.23,1.24c-0.07,14.85-0.15,29.7-0.26,44.55c-0.05,7.34-0.12,14.69-0.27,22.03
		c-0.02,1.23,0.38,1.44,1.48,1.43c9.94-0.03,19.89-0.05,29.83,0c6.99,0.03,13.97,0.16,20.96,0.27c0.32,0.01,0.87,0.25,0.9,0.44
		C305.22,424.68,305.45,426.8,305.71,429.11z"/>
	<path d="M327.46,342.93c2.38,0,4.53-0.02,6.67,0.04c0.19,0.01,0.51,0.53,0.53,0.82c0.15,2.24,0.13,2.25,2.42,2.25
		c2.67,0,5.35-0.02,8.02,0c3.39,0.02,6.19,2.13,7.11,5.33c0.12,0.41,0.16,0.86,0.16,1.29c0.01,7.98,0.03,15.96-0.01,23.94
		c-0.02,4.47-0.15,8.93-0.24,13.4c-0.01,0.34-0.06,0.68-0.1,1.06c-2.19-0.67-4.28-1.27-6.32-1.99c-0.3-0.11-0.59-0.76-0.59-1.16
		c0.04-11.09,0.12-22.18,0.19-33.27c0.01-1.6,0-1.59-1.63-1.59c-2.55,0-5.11,0.06-7.66-0.03c-1.21-0.04-1.71,0.32-1.54,1.54
		c0.06,0.43,0.01,0.87,0.01,1.37c1.5,0.26,2,1.17,1.83,2.58c-0.08,0.63-0.02,1.28-0.02,1.91c-0.01,1.14-0.61,1.75-1.77,1.75
		c-2.28,0-4.55,0-6.83-0.02c-1.37-0.01-1.98-0.61-2.02-1.96c-0.02-0.76-0.04-1.52,0.03-2.27c0.07-0.76,0.28-1.46,1.16-1.79
		c0.28-0.1,0.58-0.62,0.58-0.95C327.47,351.11,327.46,347.05,327.46,342.93z"/>
	<path d="M317.02,371.7c3.07-0.25,6.06-0.69,9.06-0.67c3.44,0.02,6.89,0.42,10.32,0.73c0.31,0.03,0.79,0.62,0.81,0.96
		c0.18,3.47,1.03,6.92,0.31,10.42c-0.22,1.07-0.2,2.21-0.24,3.31c-0.03,0.83-0.42,1.28-1.22,1.33c-3.13,0.2-6.25,0.51-9.38,0.52
		c-2.93,0.01-5.86-0.28-8.78-0.55c-0.44-0.04-1.13-0.64-1.17-1.04c-0.26-2.88-0.51-5.76-0.51-8.65c0-1.92,0.39-3.85,0.61-5.77
		C316.84,372.15,316.92,372,317.02,371.7z"/>
	<path d="M270.26,388.54c-3.1-0.25-6.14-0.52-9.19-0.72c-0.86-0.06-1.11-0.6-1.18-1.24c-0.45-4.18-0.82-8.37-0.04-12.56
		c0.06-0.35,0-0.72,0.05-1.07c0.11-0.73,0.38-1.17,1.29-1.22c3.05-0.18,6.09-0.68,9.13-0.68c3.08,0,6.17,0.42,9.25,0.73
		c0.34,0.03,0.86,0.57,0.89,0.9c0.26,3.38,1.05,6.75,0.36,10.18c-0.24,1.19-0.21,2.44-0.29,3.67c-0.05,0.74-0.4,1.22-1.16,1.28
		C276.33,388.05,273.28,388.29,270.26,388.54z"/>
	<path d="M298.48,388.53c-3.04-0.25-6.05-0.48-9.05-0.73c-0.69-0.06-1.14-0.26-1.16-1.15c-0.07-3.25-0.3-6.5-0.35-9.76
		c-0.02-1.5,0.2-3,0.41-4.49c0.03-0.25,0.5-0.58,0.82-0.63c1.28-0.23,2.58-0.47,3.87-0.52c2.54-0.1,5.08-0.1,7.62-0.08
		c1.55,0.02,3.09,0.15,4.64,0.26c0.94,0.07,1.89,0.15,2.81,0.35c0.26,0.05,0.55,0.5,0.61,0.82c0.82,3.92,0.72,7.88,0.34,11.84
		c-0.07,0.78-0.27,1.56-0.29,2.34c-0.02,0.75-0.43,0.98-1.05,1.03C304.63,388.04,301.54,388.28,298.48,388.53z"/>
	<path d="M281.16,404.07c-0.21,2.32-0.38,4.69-0.7,7.04c-0.06,0.42-0.72,1.01-1.17,1.08c-1.71,0.29-3.45,0.53-5.19,0.54
		c-3.54,0.02-7.08-0.1-10.62-0.21c-0.82-0.02-1.68-0.11-2.45-0.36c-0.43-0.14-1.02-0.67-1.05-1.05c-0.21-3.04-0.35-6.08-0.41-9.12
		c-0.02-1.42,0.19-2.84,0.31-4.26c0.08-0.88,0.25-1.59,1.43-1.63c1.54-0.04,3.07-0.27,4.61-0.43c0.98-0.1,1.97-0.35,2.95-0.29
		c3.56,0.2,7.12,0.48,10.68,0.82c0.35,0.03,0.87,0.59,0.92,0.95C280.75,399.42,280.93,401.72,281.16,404.07z"/>
	<path d="M297.84,412.88c-2.26-0.17-5.23-0.38-8.2-0.62c-0.83-0.07-1.35-0.42-1.37-1.44c-0.07-3.18-0.31-6.35-0.36-9.53
		c-0.02-1.46,0.21-2.93,0.41-4.38c0.04-0.28,0.46-0.66,0.76-0.71c1.24-0.23,2.5-0.42,3.76-0.5c2.46-0.16,4.93-0.38,7.39-0.3
		c2.57,0.08,5.13,0.49,7.69,0.76c1.29,0.13,0.96,1.36,1.03,1.97c0.26,2.28,0.35,4.6,0.27,6.9c-0.03,0.88-0.73,1.72-1.1,2.59
		c-0.55,1.32-1.03,2.68-1.65,3.96c-0.19,0.4-0.71,0.88-1.11,0.92C303.11,412.68,300.84,412.74,297.84,412.88z"/>
	<path d="M306.34,342.77c2.17,0,4.27-0.03,6.38,0.04c0.22,0.01,0.6,0.64,0.59,0.98c-0.05,2.39,0.01,1.97,1.98,1.98
		c2.39,0.02,4.79,0.03,7.18-0.01c0.88-0.01,1.21,0.29,1.18,1.19c-0.05,1.59-0.06,3.19,0,4.79c0.03,0.84-0.24,1.11-1.08,1.1
		c-2.63-0.04-5.27-0.04-7.9,0.01c-0.46,0.01-1.31,0.36-1.31,0.51c0.04,0.85,0.02,2.07,0.54,2.45c0.92,0.67,1.25,1.32,1.18,2.37
		c-0.05,0.71,0.01,1.44,0,2.15c-0.01,0.96-0.51,1.51-1.46,1.52c-2.55,0.03-5.11,0.01-7.66,0.02c-0.96,0-1.38-0.61-1.46-1.43
		c-0.09-0.95-0.12-1.93,0.02-2.86c0.08-0.52,0.46-1.16,0.9-1.42c0.69-0.4,0.88-0.83,0.87-1.6c-0.05-3.67-0.02-7.34-0.02-11.01
		C306.3,343.34,306.32,343.11,306.34,342.77z"/>
	<path d="M285.53,342.77c2.03,0,3.9,0,5.77,0c0.39,0,0.79,0,1.29,0c0,1,0,1.9,0,2.94c0.56,0.03,1.02,0.07,1.48,0.07
		c2.52,0.01,5.03,0.03,7.55-0.01c0.82-0.01,1.13,0.2,1.1,1.07c-0.07,1.63-0.06,3.27,0,4.91c0.03,0.84-0.22,1.12-1.07,1.1
		c-2.59-0.04-5.19-0.02-7.79-0.01c-0.35,0-0.7,0.04-1.09,0.06c-0.06,0.86-0.18,1.64-0.15,2.42c0.01,0.25,0.47,0.45,0.66,0.72
		c0.39,0.56,0.92,1.11,1.07,1.73c0.18,0.8,0.1,1.67,0.03,2.5c-0.08,0.97-0.54,1.65-1.66,1.64c-2.47-0.02-4.95,0-7.42-0.03
		c-1.03-0.01-1.51-0.58-1.45-1.62c0.04-0.72,0.06-1.44,0.01-2.15c-0.07-0.99,0.11-1.75,1.12-2.27c0.34-0.17,0.54-0.92,0.55-1.41
		c0.04-3.47,0.02-6.94,0.01-10.42C285.52,343.65,285.53,343.3,285.53,342.77z"/>
	<path d="M264.67,355.72c0-4.32,0-8.54,0-12.95c2.2,0,4.34-0.02,6.47,0.03c0.19,0,0.51,0.44,0.54,0.7c0.08,0.7,0.03,1.42,0.03,2.28
		c1.73,0,3.35,0,4.97,0c1.47,0,2.95-0.02,4.42,0.03c0.24,0.01,0.66,0.36,0.66,0.56c0.05,1.91,0.02,3.83,0.03,5.74
		c0,0.8-0.56,0.72-1.08,0.72c-2.59,0-5.19,0.03-7.78-0.02c-0.91-0.02-1.3,0.18-1.23,1.19c0.06,0.96-0.08,1.87,1.13,2.3
		c0.32,0.11,0.46,0.77,0.67,1.18c0.03,0.06,0,0.16,0,0.24c0.13,4.22,0.1,4.24-4.15,4.22c-1.48-0.01-2.95,0.01-4.43,0
		c-1.61-0.01-2-0.4-2-1.96c0-0.52,0.05-1.04-0.01-1.55C262.75,357.04,263.01,355.93,264.67,355.72z"/>
	<path class="st0" d="M353.4,414.44c-0.26,0.46-0.6,1.53-1.31,2.25c-5.26,5.34-10.59,10.62-15.91,15.91
		c-1.09,1.08-2.3,0.99-3.45-0.15c-2.62-2.61-5.24-5.22-7.87-7.82c-1.7-1.68-1.79-3.9-0.2-5.47c1.6-1.59,3.75-1.46,5.48,0.3
		c1.25,1.28,2.57,2.49,3.8,3.78c0.69,0.72,1.09,0.11,1.47-0.27c1.76-1.73,3.49-3.49,5.23-5.25c2.05-2.07,4.07-4.15,6.14-6.2
		c1.18-1.17,2.58-1.75,4.24-1.09C352.53,411.04,353.41,412.36,353.4,414.44z"/>
</g>
</svg>
