<?xml version="1.0" encoding="utf-8"?>
<!-- Generator: Adobe Illustrator 24.1.1, SVG Export Plug-In . SVG Version: 6.00 Build 0)  -->
<svg version="1.1" id="Capa_1" xmlns="http://www.w3.org/2000/svg" xmlns:xlink="http://www.w3.org/1999/xlink" x="0px" y="0px"
	 viewBox="0 0 612 792" style="enable-background:new 0 0 612 792;" xml:space="preserve">
<style type="text/css">
	.st0{fill:#FFFFFF;}
</style>
<g>
	<path class="st0" d="M235,298c47.28,0,94.56,0,141.84,0c0,65.52,0,131.04,0,196.56c-47.28,0-94.56,0-141.84,0
		C235,429.04,235,363.52,235,298z M291.29,460.68c0-0.56,0-1,0-1.44c0.01-4.43,0.01-8.87,0.02-13.3c0.01-1.96,0.44-2.39,2.41-2.41
		c1.04-0.01,2.07,0,3.11,0c1.13-0.01,1.61,0.42,1.64,1.56c0.09,3.27,0.23,6.53,0.22,9.8c0,5.9-0.09,11.81-0.15,17.71
		c-0.01,1.23,0.54,1.79,1.79,1.79c2.52,0,5.03,0.01,7.55-0.01c3.17-0.02,3.15,0.59,3.2-3.21c0.12-8.42,0.14-16.85,0.08-25.27
		c-0.01-1.98,1.15-2.6,2.88-2.57c0.46,0.01,0.92,0.27,1.39,0.32c0.89,0.1,1.06,0.64,1.05,1.42c-0.02,2.36-0.01,4.71-0.01,7.07
		c0,2.67,0,5.34,0,7.98c2.53,0.55,7.36,0.51,8.83-0.07c0-4.93,0-9.88,0-14.83c0-1.68,0.43-2.03,2.15-1.75
		c1.21,0.2,2.18-0.68,2.13-1.9c-0.07-1.6-0.13-3.21-0.16-4.81c-0.03-1.48-0.09-2.96,0.01-4.43c0.08-1.17,0.13-2.46,1.44-3.06
		c1.14-0.52,2.29-1.01,3.46-1.47c3.44-1.33,6.2-3.72,8.99-5.98c2.19-1.76,4.09-3.9,6.01-5.96c1.32-1.42,2.67-2.89,3.62-4.56
		c1.8-3.17,3.64-6.34,4.59-9.92c0.48-1.79,1.17-3.54,1.49-5.35c0.35-1.98,0.58-4.03,0.49-6.04c-0.14-3.39-0.16-6.81-1.19-10.1
		c-0.74-2.36-1.25-4.82-2.24-7.07c-2.07-4.67-4.89-8.83-8.53-12.5c-2.8-2.83-5.78-5.39-9.11-7.52c-2.03-1.3-4.05-2.83-6.31-3.51
		c-2.67-0.8-2.77-2.53-2.76-4.63c0.01-3.15,0-6.31,0-9.46c0-0.54,0-1.09,0-1.64c-16.91,0-33.66,0-50.51,0c0,4.21,0,8.36,0,12.5
		c0,0.16,0,0.33,0.06,0.47c0.51,1.21-0.19,2.41-1.5,2.55c-0.26,0.03-0.55,0.07-0.78,0.2c-1.3,0.73-2.56,1.57-3.9,2.23
		c-4.49,2.21-8.21,5.38-11.58,9.03c-1.24,1.35-2.69,2.55-3.71,4.05c-1.7,2.51-3.2,5.17-4.64,7.84c-0.75,1.4-1.28,2.94-1.72,4.47
		c-0.45,1.58-0.69,3.23-1,4.86c-0.32,1.66-0.75,3.31-0.92,4.98c-0.44,4.34,0.77,8.51,1.42,12.74c0.13,0.85,0.21,1.75,0.56,2.52
		c0.9,2.04,1.91,4.03,2.92,6.01c2.69,5.23,6.45,9.57,10.85,13.43c3.46,3.04,7.36,5.37,11.43,7.44c0.27,0.14,0.6,0.2,0.91,0.23
		c1.16,0.11,1.75,0.72,1.78,1.9c0.04,2,0.09,3.99,0.1,5.99c0.01,1.72-0.07,3.43-0.07,5.15c0,1.22,0.62,1.75,1.68,1.56
		c1.51-0.28,1.67-0.17,1.68,1.38c0.01,3.95,0,7.91,0.01,11.86c0,1.23,0,2.46,0,3.74C285.44,460.68,288.29,460.68,291.29,460.68z"/>
	<path d="M291.29,460.68c-2.99,0-5.85,0-8.83,0c0-1.28,0-2.51,0-3.74c0-3.95,0.01-7.91-0.01-11.86c0-1.54-0.16-1.66-1.68-1.38
		c-1.07,0.2-1.68-0.34-1.68-1.56c0-1.72,0.07-3.43,0.07-5.15c-0.01-2-0.05-3.99-0.1-5.99c-0.03-1.19-0.62-1.8-1.78-1.9
		c-0.31-0.03-0.64-0.09-0.91-0.23c-4.07-2.08-7.97-4.41-11.43-7.44c-4.4-3.86-8.17-8.21-10.85-13.43c-1.02-1.98-2.02-3.98-2.92-6.01
		c-0.34-0.77-0.43-1.67-0.56-2.52c-0.65-4.23-1.87-8.4-1.42-12.74c0.17-1.67,0.6-3.32,0.92-4.98c0.32-1.62,0.55-3.27,1-4.86
		c0.44-1.53,0.97-3.07,1.72-4.47c1.43-2.68,2.94-5.33,4.64-7.84c1.01-1.5,2.46-2.7,3.71-4.05c3.37-3.64,7.09-6.82,11.58-9.03
		c1.34-0.66,2.59-1.49,3.9-2.23c0.23-0.13,0.51-0.17,0.78-0.2c1.31-0.14,2.01-1.34,1.5-2.55c-0.06-0.14-0.06-0.31-0.06-0.47
		c0-4.14,0-8.29,0-12.5c16.85,0,33.6,0,50.51,0c0,0.55,0,1.1,0,1.64c0,3.15,0.01,6.31,0,9.46c-0.01,2.09,0.09,3.82,2.76,4.63
		c2.25,0.68,4.27,2.21,6.31,3.51c3.34,2.13,6.31,4.68,9.11,7.52c3.64,3.67,6.46,7.83,8.53,12.5c0.99,2.25,1.51,4.71,2.24,7.07
		c1.03,3.29,1.06,6.71,1.19,10.1c0.08,2.01-0.15,4.05-0.49,6.04c-0.32,1.81-1.01,3.56-1.49,5.35c-0.95,3.57-2.79,6.75-4.59,9.92
		c-0.95,1.67-2.3,3.14-3.62,4.56c-1.92,2.07-3.83,4.2-6.01,5.96c-2.8,2.26-5.56,4.65-8.99,5.98c-1.17,0.45-2.32,0.94-3.46,1.47
		c-1.31,0.6-1.36,1.89-1.44,3.06c-0.1,1.47-0.03,2.95-0.01,4.43c0.03,1.61,0.09,3.21,0.16,4.81c0.05,1.22-0.92,2.1-2.13,1.9
		c-1.72-0.28-2.15,0.07-2.15,1.75c0,4.95,0,9.9,0,14.83c-1.47,0.59-6.29,0.63-8.83,0.07c0-2.64,0-5.31,0-7.98
		c0-2.36-0.02-4.71,0.01-7.07c0.01-0.78-0.16-1.32-1.05-1.42c-0.47-0.05-0.93-0.31-1.39-0.32c-1.74-0.03-2.9,0.59-2.88,2.57
		c0.06,8.42,0.03,16.85-0.08,25.27c-0.05,3.8-0.03,3.19-3.2,3.21c-2.52,0.02-5.03,0.01-7.55,0.01c-1.25,0-1.8-0.56-1.79-1.79
		c0.06-5.9,0.15-11.81,0.15-17.71c0-3.27-0.13-6.53-0.22-9.8c-0.03-1.14-0.51-1.57-1.64-1.56c-1.04,0-2.07-0.01-3.11,0
		c-1.97,0.02-2.4,0.45-2.41,2.41c-0.01,4.43-0.02,8.87-0.02,13.3C291.28,459.68,291.29,460.12,291.29,460.68z M292.35,346.9
		c-1.3,0-2.54-0.01-3.78,0.01c-0.3,0.01-0.67,0.06-0.9,0.23c-2.21,1.66-4.56,3.17-6.54,5.08c-2.07,1.99-3.97,4.24-5.58,6.62
		c-1.98,2.93-3.78,6.01-5.29,9.21c-1.21,2.56-1.85,5.39-2.79,8.08c-1.16,3.31-1.89,6.69-1.82,10.22c0.09,4.67-0.35,9.38,1.37,13.9
		c0.42,1.11,0.28,2.44,0.7,3.55c0.9,2.35,1.9,4.69,3.05,6.93c2.76,5.36,6.08,10.38,10.42,14.6c2.74,2.67,5.31,5.9,9.89,5.11
		c0.26-0.04,0.64,0.2,0.8,0.09c0.29-0.2,0.7-0.77,0.63-0.86c-0.48-0.64-0.97-1.49-1.66-1.74c-1.72-0.61-3.27-1.38-4.53-2.73
		c-2.05-2.21-4.18-4.35-6.16-6.62c-1.17-1.34-2.24-2.79-3.16-4.32c-1.08-1.8-1.83-3.8-2.93-5.59c-1.68-2.73-2.14-5.82-2.85-8.83
		c-0.51-2.18-0.75-4.45-0.89-6.7c-0.16-2.53-0.1-5.07-0.06-7.61c0.02-1.63-0.05-3.31,0.31-4.87c0.74-3.24,1.53-6.5,2.71-9.6
		c1.04-2.74,2.45-5.39,4.04-7.85c1.56-2.42,3.49-4.62,5.39-6.8c1.17-1.34,2.5-2.57,3.9-3.67c1.55-1.22,3.27-2.22,4.91-3.32
		C292.43,348.84,293.03,348.13,292.35,346.9z M343.44,389.31c-0.24-2.47-0.36-4.62-0.67-6.74c-0.29-1.97-0.71-3.94-1.23-5.87
		c-0.49-1.8-1.18-3.54-1.81-5.29c-0.66-1.84-1.19-3.75-2.05-5.49c-0.79-1.6-2.19-2.92-2.87-4.55c-0.98-2.35-2.72-4.09-4.25-5.97
		c-1.54-1.91-3.29-3.69-5.15-5.31c-2.48-2.15-5.19-3.97-8.78-3.18c-0.31,0.07-0.75,0.23-0.83,0.46c-0.09,0.25,0.07,0.72,0.28,0.93
		c0.71,0.69,1.41,1.45,2.27,1.91c5.09,2.7,8.73,6.92,12.02,11.47c1.38,1.91,2.19,4.21,3.51,6.17c2.12,3.15,3.31,6.65,3.93,10.31
		c0.57,3.32,0.92,6.7,1.04,10.06c0.17,4.78-0.56,9.5-1.66,14.15c-0.37,1.57-0.82,3.16-1.52,4.61c-2.3,4.73-4.67,9.43-8.36,13.29
		c-2.53,2.64-5.04,5.33-8.25,7.21c-0.84,0.5-1.73,0.92-2.54,1.47c-0.29,0.19-0.65,0.77-0.55,0.94c0.18,0.32,0.65,0.63,1.02,0.64
		c1.07,0.04,2.14-0.15,3.21-0.1c1.32,0.06,2.29-0.49,3.16-1.38c0.31-0.31,0.63-0.61,0.95-0.91c2.22-2.09,4.72-3.97,6.6-6.34
		c2.41-3.04,4.58-6.33,6.37-9.77c1.59-3.06,2.54-6.46,3.74-9.73c0.31-0.85,0.6-1.72,0.79-2.6c0.3-1.47,0.53-2.96,0.76-4.45
		C342.89,393.18,343.18,391.1,343.44,389.31z M302.54,408.05c-0.02,0-0.04,0-0.06,0c0,6.83,0,13.65,0,20.48
		c0,1.6,0.28,1.88,1.87,1.9c1.59,0.01,2.1-0.43,2.11-1.88c0.01-1.39-0.04-2.79-0.03-4.18c0.06-13.61,0.16-27.23,0.2-40.84
		c0.04-11.58,0.02-23.17,0.02-34.75c0-0.34-0.05-0.73-0.22-1c-0.52-0.8-2.03-1.19-3.15-0.84c-1.05,0.33-0.96,1.22-0.95,2.07
		c0.08,12.89,0.16,25.79,0.22,38.68C302.57,394.47,302.54,401.26,302.54,408.05z"/>
	<path class="st0" d="M292.35,346.9c0.68,1.23,0.08,1.94-0.83,2.54c-1.65,1.09-3.36,2.1-4.91,3.32c-1.4,1.1-2.73,2.33-3.9,3.67
		c-1.9,2.18-3.83,4.38-5.39,6.8c-1.59,2.47-3,5.11-4.04,7.85c-1.18,3.1-1.96,6.36-2.71,9.6c-0.36,1.57-0.29,3.25-0.31,4.87
		c-0.04,2.54-0.09,5.08,0.06,7.61c0.14,2.24,0.38,4.51,0.89,6.7c0.7,3.01,1.17,6.1,2.85,8.83c1.1,1.79,1.85,3.79,2.93,5.59
		c0.92,1.52,1.99,2.98,3.16,4.32c1.99,2.27,4.11,4.41,6.16,6.62c1.25,1.35,2.81,2.12,4.53,2.73c0.68,0.24,1.17,1.09,1.66,1.74
		c0.07,0.09-0.34,0.65-0.63,0.86c-0.16,0.11-0.54-0.13-0.8-0.09c-4.58,0.78-7.15-2.44-9.89-5.11c-4.34-4.23-7.65-9.24-10.42-14.6
		c-1.15-2.24-2.15-4.57-3.05-6.93c-0.43-1.11-0.28-2.44-0.7-3.55c-1.72-4.53-1.28-9.23-1.37-13.9c-0.07-3.54,0.66-6.91,1.82-10.22
		c0.94-2.69,1.58-5.52,2.79-8.08c1.51-3.19,3.31-6.28,5.29-9.21c1.61-2.38,3.51-4.62,5.58-6.62c1.98-1.9,4.33-3.42,6.54-5.08
		c0.23-0.17,0.59-0.23,0.9-0.23C289.81,346.89,291.05,346.9,292.35,346.9z"/>
	<path class="st0" d="M343.44,389.31c-0.26,1.79-0.56,3.87-0.88,5.95c-0.23,1.49-0.45,2.98-0.76,4.45c-0.18,0.88-0.47,1.75-0.79,2.6
		c-1.21,3.26-2.15,6.66-3.74,9.73c-1.79,3.44-3.96,6.73-6.37,9.77c-1.88,2.37-4.38,4.24-6.6,6.34c-0.32,0.3-0.64,0.6-0.95,0.91
		c-0.87,0.89-1.84,1.45-3.16,1.38c-1.07-0.05-2.14,0.14-3.21,0.1c-0.36-0.01-0.84-0.33-1.02-0.64c-0.09-0.16,0.26-0.74,0.55-0.94
		c0.81-0.54,1.7-0.97,2.54-1.47c3.2-1.88,5.72-4.56,8.25-7.21c3.69-3.85,6.06-8.56,8.36-13.29c0.7-1.44,1.15-3.04,1.52-4.61
		c1.09-4.65,1.83-9.37,1.66-14.15c-0.12-3.36-0.47-6.74-1.04-10.06c-0.62-3.66-1.81-7.16-3.93-10.31c-1.32-1.96-2.13-4.27-3.51-6.17
		c-3.29-4.54-6.93-8.77-12.02-11.47c-0.85-0.45-1.56-1.22-2.27-1.91c-0.21-0.21-0.37-0.68-0.28-0.93c0.08-0.23,0.52-0.4,0.83-0.46
		c3.59-0.79,6.3,1.02,8.78,3.18c1.86,1.61,3.6,3.4,5.15,5.31c1.53,1.89,3.26,3.63,4.25,5.97c0.68,1.63,2.08,2.95,2.87,4.55
		c0.86,1.74,1.39,3.65,2.05,5.49c0.63,1.76,1.32,3.5,1.81,5.29c0.52,1.93,0.94,3.89,1.23,5.87
		C343.09,384.69,343.21,386.84,343.44,389.31z"/>
	<path class="st0" d="M302.54,408.05c0-6.79,0.02-13.58-0.01-20.37c-0.05-12.89-0.14-25.79-0.22-38.68c0-0.85-0.1-1.74,0.95-2.07
		c1.12-0.35,2.64,0.05,3.15,0.84c0.18,0.27,0.22,0.66,0.22,1c0,11.58,0.02,23.17-0.02,34.75c-0.04,13.61-0.13,27.23-0.2,40.84
		c-0.01,1.39,0.04,2.79,0.03,4.18c-0.01,1.45-0.52,1.9-2.11,1.88c-1.59-0.01-1.87-0.3-1.87-1.9c0-6.83,0-13.65,0-20.48
		C302.51,408.05,302.52,408.05,302.54,408.05z"/>
</g>
</svg>
