<?xml version="1.0" encoding="utf-8"?>
<!-- Generator: Adobe Illustrator 24.1.1, SVG Export Plug-In . SVG Version: 6.00 Build 0)  -->
<svg version="1.1" id="Capa_1" xmlns="http://www.w3.org/2000/svg" xmlns:xlink="http://www.w3.org/1999/xlink" x="0px" y="0px"
	 viewBox="0 0 612 792" style="enable-background:new 0 0 612 792;" xml:space="preserve">
<style type="text/css">
	.st0{fill:#FFFFFF;}
</style>
<g>
	<path class="st0" d="M376.84,468c-47.27,0-94.55,0-141.84,0c0-47.99,0-95.99,0-144c47.26,0,94.53,0,141.84,0
		C376.84,371.99,376.84,419.99,376.84,468z M306.62,457.47c3.61-0.23,6.13-0.32,8.63-0.58c2.21-0.23,4.39-0.8,6.61-0.98
		c4.4-0.37,8.52-1.6,12.38-3.69c2.28-1.23,2.47-2.69,0.75-4.56c-0.66-0.71-0.52-1.26,0.35-1.66c0.79-0.37,1.6-0.74,2.28-1.26
		c2.31-1.77,4.59-3.58,6.84-5.43c3.46-2.84,6.03-6.48,8.62-10.06c1.41-1.95,2.48-4.2,3.46-6.42c1.04-2.36,1.98-4.79,2.64-7.28
		c0.74-2.8,1.23-5.68,1.64-8.55c0.28-1.94,0.9-4.04-0.45-5.79c-0.77-1-1.87-1.86-3-2.43c-1.55-0.79-3.24-1.3-4.9-1.83
		c-1.73-0.55-3.61-0.76-5.22-1.53c-2.53-1.2-4.91-2.75-7.34-4.15c-0.74-0.43-0.71-0.99-0.23-1.6c0.42-0.53,0.92-1.01,1.28-1.58
		c4.23-6.66,8.44-13.34,12.67-20c2.14-3.37,4.32-6.71,6.47-10.07c0.6-0.94,1.14-1.92,1.74-2.86c1.68-2.66,3.45-5.28,5.04-7.99
		c0.98-1.67,0.35-3.71-1.16-4.61c-1.92-1.14-3.68-0.84-4.94,0.92c-1.3,1.82-2.59,3.64-3.8,5.52c-2.45,3.82-4.84,7.68-7.26,11.52
		c-3.51,5.56-7.04,11.12-10.56,16.68c-2.01,3.17-4.03,6.33-6.02,9.5c-0.59,0.94-1.37,1.35-2.43,0.97c-1.04-0.37-2.1-0.76-3.06-1.3
		c-0.3-0.17-0.56-0.92-0.43-1.26c1.1-2.93,2.34-5.82,3.44-8.75c0.69-1.86,1.13-3.82,1.82-5.69c1.64-4.44,3.4-8.83,5.05-13.27
		c1.57-4.22,3.04-8.48,4.57-12.71c0.92-2.55,1.9-5.07,2.79-7.63c0.81-2.35-0.31-4.35-2.7-4.95c-1.78-0.45-3.92,1.15-4.36,3.22
		c-0.14,0.66-0.35,1.31-0.58,1.95c-1.68,4.56-3.36,9.12-5.06,13.68c-1.2,3.21-2.46,6.39-3.62,9.61c-1.5,4.16-2.89,8.35-4.39,12.51
		c-1.28,3.56-2.65,7.08-3.98,10.62c-0.25,0.68-0.68,1.05-1.44,0.97c-2.89-0.3-5.78-0.73-8.68-0.84c-4.66-0.17-9.33-0.24-13.99-0.11
		c-2.65,0.07-5.29,0.88-7.94,0.87c-3.84-0.02-7.29,1.46-10.9,2.28c-1.91,0.43-3.71,1.38-5.62,1.85c-3.72,0.92-6.94,2.86-10.08,4.91
		c-1.9,1.23-3.82,2.3-6.03,2.73c-3.07,0.59-5.98,1.59-8.62,3.26c-1.54,0.98-2.62,2.24-2.24,4.36c0.52,2.89,0.75,5.83,1.25,8.73
		c0.57,3.37,1.44,6.68,3.06,9.73c1.33,2.5,2.51,5.12,4.17,7.38c2.33,3.17,4.83,6.27,7.64,9c2.64,2.56,5.7,4.72,8.74,6.82
		c1.69,1.17,1.94,1.52,0.42,2.92c-0.69,0.64-0.83,1.35-0.18,1.98c0.9,0.88,1.85,1.78,2.93,2.38c4.74,2.63,10.08,2.78,15.26,3.57
		c1.22,0.19,2.43,0.56,3.65,0.61C296.95,457.27,302.33,457.36,306.62,457.47z"/>
	<path d="M306.62,457.47c-4.28-0.1-9.67-0.2-15.05-0.39c-1.22-0.04-2.43-0.42-3.65-0.61c-5.18-0.79-10.53-0.94-15.26-3.57
		c-1.09-0.6-2.03-1.51-2.93-2.38c-0.64-0.62-0.51-1.34,0.18-1.98c1.52-1.4,1.27-1.74-0.42-2.92c-3.04-2.1-6.1-4.26-8.74-6.82
		c-2.81-2.73-5.32-5.83-7.64-9c-1.66-2.26-2.85-4.88-4.17-7.38c-1.62-3.05-2.49-6.35-3.06-9.73c-0.49-2.9-0.73-5.83-1.25-8.73
		c-0.38-2.12,0.7-3.38,2.24-4.36c2.64-1.67,5.55-2.66,8.62-3.26c2.21-0.43,4.14-1.49,6.03-2.73c3.14-2.05,6.35-3.99,10.08-4.91
		c1.91-0.47,3.71-1.42,5.62-1.85c3.62-0.82,7.07-2.3,10.9-2.28c2.64,0.01,5.29-0.8,7.94-0.87c4.66-0.12,9.33-0.06,13.99,0.11
		c2.9,0.11,5.78,0.54,8.68,0.84c0.77,0.08,1.19-0.29,1.44-0.97c1.33-3.54,2.7-7.07,3.98-10.62c1.5-4.16,2.89-8.35,4.39-12.51
		c1.16-3.22,2.42-6.4,3.62-9.61c1.7-4.55,3.39-9.11,5.06-13.68c0.23-0.63,0.44-1.29,0.58-1.95c0.43-2.07,2.58-3.67,4.36-3.22
		c2.39,0.6,3.52,2.6,2.7,4.95c-0.89,2.56-1.87,5.08-2.79,7.63c-1.53,4.23-3,8.49-4.57,12.71c-1.65,4.44-3.41,8.83-5.05,13.27
		c-0.69,1.86-1.13,3.82-1.82,5.69c-1.09,2.94-2.34,5.82-3.44,8.75c-0.13,0.33,0.14,1.09,0.43,1.26c0.96,0.53,2.02,0.92,3.06,1.3
		c1.06,0.38,1.83-0.02,2.43-0.97c1.99-3.18,4.01-6.33,6.02-9.5c3.52-5.56,7.04-11.12,10.56-16.68c2.42-3.84,4.81-7.7,7.26-11.52
		c1.21-1.88,2.5-3.71,3.8-5.52c1.26-1.76,3.03-2.06,4.94-0.92c1.52,0.9,2.14,2.94,1.16,4.61c-1.59,2.72-3.36,5.33-5.04,7.99
		c-0.6,0.94-1.14,1.92-1.74,2.86c-2.15,3.36-4.33,6.7-6.47,10.07c-4.23,6.66-8.44,13.34-12.67,20c-0.36,0.57-0.86,1.05-1.28,1.58
		c-0.48,0.61-0.52,1.17,0.23,1.6c2.44,1.41,4.81,2.95,7.34,4.15c1.62,0.77,3.49,0.98,5.22,1.53c1.66,0.53,3.36,1.05,4.9,1.83
		c1.13,0.58,2.23,1.44,3,2.43c1.35,1.74,0.73,3.85,0.45,5.79c-0.41,2.87-0.9,5.75-1.64,8.55c-0.66,2.49-1.6,4.93-2.64,7.28
		c-0.98,2.22-2.05,4.46-3.46,6.42c-2.59,3.58-5.16,7.22-8.62,10.06c-2.25,1.85-4.53,3.66-6.84,5.43c-0.68,0.52-1.49,0.89-2.28,1.26
		c-0.87,0.41-1.01,0.95-0.35,1.66c1.73,1.87,1.53,3.33-0.75,4.56c-3.86,2.09-7.98,3.32-12.38,3.69c-2.21,0.19-4.39,0.75-6.61,0.98
		C312.75,457.15,310.23,457.23,306.62,457.47z M303.05,413.28C303.05,413.28,303.05,413.28,303.05,413.28
		c5.23,0.01,10.46,0.08,15.69-0.03c2.58-0.05,5.16-0.41,7.74-0.68c2.42-0.25,4.82-0.59,7.24-0.84c2.81-0.3,5.66-0.36,8.44-0.87
		c2.91-0.53,5.74-1.48,8.61-2.22c1.18-0.3,1.99-1.24,1.72-2.19c-0.75-2.69-2.04-5.07-3.99-7.1c-2.64-2.73-5.85-4.67-9.09-6.53
		c-0.69-0.4-1.3-0.4-1.86,0.53c-1.68,2.8-3.51,5.51-5.29,8.26c-0.9,1.4-2.18,1.96-3.79,1.55c-0.8-0.2-1.63-0.48-2.29-0.94
		c-1.96-1.35-1.93-1.9-0.56-3.84c1.7-2.41,3.27-4.91,4.84-7.42c0.23-0.37,0.28-1.3,0.11-1.38c-1.11-0.56-2.28-1.24-3.47-1.31
		c-0.55-0.03-1.44,1.11-1.72,1.89c-1.11,3.03-2.08,6.1-3.02,9.19c-1.39,4.56-4.65,4.64-7.67,2.69c-0.34-0.22-0.63-0.84-0.61-1.26
		c0.04-0.7,0.32-1.39,0.57-2.06c1.38-3.64,2.8-7.27,4.16-10.93c0.1-0.27-0.1-0.85-0.34-1.02c-0.44-0.3-1-0.49-1.54-0.57
		c-2.01-0.29-4.03-0.5-6.04-0.77c-6.34-0.84-12.65-0.62-18.96,0.29c-1.38,0.2-2.77,0.28-4.14,0.54c-2.84,0.53-5.67,1.13-8.5,1.72
		c-1.05,0.22-2.11,0.42-3.11,0.78c-2.26,0.83-4.47,1.77-6.72,2.63c-4.63,1.77-8.81,4.27-12.23,7.87c-1.91,2-3.26,4.42-4.06,7.11
		c-0.25,0.84-0.14,1.49,0.85,1.76c0.88,0.24,1.74,0.54,2.61,0.79c2.36,0.68,4.69,1.48,7.09,1.98c2.02,0.42,4.1,0.52,6.16,0.72
		c2.9,0.27,5.8,0.46,8.7,0.75c2.46,0.25,4.9,0.79,7.36,0.84C291.62,413.37,297.34,413.28,303.05,413.28z"/>
	<path class="st0" d="M303.05,413.28c-5.71,0-11.42,0.09-17.13-0.04c-2.46-0.06-4.9-0.6-7.36-0.84c-2.9-0.29-5.8-0.48-8.7-0.75
		c-2.06-0.19-4.15-0.29-6.16-0.72c-2.4-0.5-4.73-1.3-7.09-1.98c-0.87-0.25-1.73-0.55-2.61-0.79c-0.99-0.27-1.1-0.92-0.85-1.76
		c0.81-2.68,2.15-5.1,4.06-7.11c3.42-3.6,7.6-6.1,12.23-7.87c2.25-0.86,4.46-1.81,6.72-2.63c1-0.37,2.07-0.56,3.11-0.78
		c2.83-0.59,5.66-1.19,8.5-1.72c1.36-0.25,2.76-0.34,4.14-0.54c6.31-0.91,12.62-1.14,18.96-0.29c2.01,0.27,4.03,0.48,6.04,0.77
		c0.54,0.08,1.1,0.26,1.54,0.57c0.24,0.17,0.44,0.74,0.34,1.02c-1.36,3.65-2.78,7.28-4.16,10.93c-0.25,0.67-0.53,1.36-0.57,2.06
		c-0.03,0.41,0.26,1.04,0.61,1.26c3.02,1.95,6.27,1.87,7.67-2.69c0.94-3.08,1.91-6.16,3.02-9.19c0.28-0.78,1.17-1.92,1.72-1.89
		c1.19,0.07,2.36,0.74,3.47,1.31c0.16,0.08,0.11,1.02-0.11,1.38c-1.56,2.5-3.14,5-4.84,7.42c-1.36,1.94-1.4,2.49,0.56,3.84
		c0.67,0.46,1.5,0.74,2.29,0.94c1.61,0.41,2.89-0.16,3.79-1.55c1.77-2.75,3.61-5.46,5.29-8.26c0.56-0.93,1.17-0.92,1.86-0.53
		c3.25,1.87,6.45,3.8,9.09,6.53c1.96,2.03,3.25,4.41,3.99,7.1c0.26,0.95-0.55,1.89-1.72,2.19c-2.87,0.74-5.71,1.69-8.61,2.22
		c-2.77,0.51-5.62,0.57-8.44,0.87c-2.42,0.26-4.82,0.59-7.24,0.84c-2.58,0.27-5.16,0.63-7.74,0.68
		C313.51,413.36,308.28,413.28,303.05,413.28C303.05,413.28,303.05,413.28,303.05,413.28z M305.14,399.92
		c-2.64,0.72-5.2,1.9-6.95,4.35c-0.22,0.31-0.03,1.33,0.29,1.54c0.69,0.46,1.63,0.93,2.39,0.83c2.27-0.3,4.59-0.63,6.2-2.62
		c0.65-0.8,1.27-1.52,0.82-2.65C307.41,400.18,306.39,400.08,305.14,399.92z M265.01,408.93c0.47-0.3,1.32-0.77,2.07-1.37
		c0.2-0.16,0.25-0.85,0.08-1.05c-0.85-0.97-1.67-2.07-2.75-2.72c-1.09-0.65-2.46-0.84-3.7-1.22c-0.94-0.29-3.02,0.25-3.43,1.08
		c-0.23,0.47-0.24,1.37,0.06,1.73C259.2,407.61,261.72,408.58,265.01,408.93z M309.14,395.03c0.44,0,0.88,0.05,1.31-0.01
		c1.64-0.24,2.22-1.57,1.28-2.91c-1.8-2.55-4.52-3.17-7.34-3.19c-2.07-0.02-2.79,1.68-1.54,3.31
		C304.43,394.27,306.69,394.92,309.14,395.03z M269.92,400.14c3.26-0.23,5.83-1.13,7.48-3.82c0.61-1,0.14-2.16-1.05-2.26
		c-0.91-0.08-1.83-0.07-2.75-0.04c-2.61,0.1-4.52,1.31-5.76,3.62c-0.48,0.89-0.28,1.56,0.58,1.98
		C268.98,399.9,269.61,400.03,269.92,400.14z M336.12,403.44c-1.09-0.18-2.25,0-2.67,1.26c-0.38,1.13,0.46,1.95,1.23,2.65
		c1.92,1.74,4.26,2.34,6.75,2.16c0.66-0.05,1.45-0.83,1.8-1.48c0.21-0.39-0.12-1.38-0.52-1.76
		C340.9,404.59,338.88,403.26,336.12,403.44z M314.73,404.5c-2.74,0.43-4.97,1.76-6.58,4.04c-0.32,0.45-0.52,1.23-0.35,1.71
		c0.3,0.83,1.09,1.17,2.04,1.14c2.71-0.08,4.91-1.14,6.62-3.25c0.63-0.77,1-1.58,0.58-2.53C316.62,404.64,315.8,404.31,314.73,404.5
		z M288.86,392.33c-0.05,0-0.44-0.1-0.76,0.02c-0.6,0.23-1.53,0.48-1.65,0.91c-0.19,0.66-0.06,1.7,0.38,2.19
		c1.86,2.08,4.34,3.02,7.08,3.05c0.68,0.01,1.6-0.6,2.01-1.2c0.51-0.76,0.18-1.73-0.54-2.37
		C293.61,393.36,291.64,392.24,288.86,392.33z M276.64,407.65c0.05-0.11,0.09-0.22,0.14-0.32c3.08,0.12,5.06-1.59,6.57-4.01
		c0.51-0.82,0.03-1.94-0.89-2.18c-2.11-0.54-6.42,0.77-7.52,2.46c-0.59,0.91-1.57,1.84-0.79,2.86
		C274.65,407.12,275.79,407.27,276.64,407.65z M293.19,411.35c0.31,0,0.6,0.08,0.78-0.02c0.64-0.34,1.47-0.62,1.79-1.17
		c0.23-0.41-0.07-1.31-0.4-1.82c-1.36-2.1-5.97-3.6-8-2.75c-0.6,0.25-1.52,0.83-1.51,1.25c0.01,0.73,0.47,1.59,1,2.15
		C288.58,410.81,290.9,411.19,293.19,411.35z"/>
	<path d="M305.14,399.92c1.25,0.16,2.27,0.26,2.74,1.45c0.45,1.14-0.17,1.85-0.82,2.65c-1.61,1.98-3.93,2.31-6.2,2.62
		c-0.76,0.1-1.7-0.37-2.39-0.83c-0.32-0.21-0.51-1.23-0.29-1.54C299.93,401.83,302.5,400.65,305.14,399.92z"/>
	<path d="M265.01,408.93c-3.29-0.35-5.82-1.32-7.66-3.55c-0.3-0.36-0.3-1.26-0.06-1.73c0.41-0.83,2.48-1.37,3.43-1.08
		c1.25,0.38,2.62,0.56,3.7,1.22c1.07,0.65,1.89,1.75,2.75,2.72c0.17,0.19,0.12,0.89-0.08,1.05
		C266.34,408.16,265.49,408.63,265.01,408.93z"/>
	<path d="M309.14,395.03c-2.46-0.11-4.71-0.76-6.29-2.8c-1.25-1.62-0.53-3.33,1.54-3.31c2.82,0.03,5.54,0.64,7.34,3.19
		c0.94,1.34,0.37,2.67-1.28,2.91C310.03,395.08,309.58,395.03,309.14,395.03z"/>
	<path d="M269.92,400.14c-0.31-0.1-0.94-0.24-1.5-0.52c-0.86-0.43-1.06-1.1-0.58-1.98c1.24-2.31,3.15-3.52,5.76-3.62
		c0.92-0.03,1.84-0.05,2.75,0.04c1.19,0.11,1.67,1.26,1.05,2.26C275.75,399,273.18,399.9,269.92,400.14z"/>
	<path d="M336.12,403.44c2.76-0.18,4.78,1.15,6.59,2.83c0.41,0.38,0.73,1.37,0.52,1.76c-0.35,0.65-1.15,1.43-1.8,1.48
		c-2.49,0.19-4.83-0.42-6.75-2.16c-0.78-0.7-1.62-1.53-1.23-2.65C333.88,403.44,335.03,403.25,336.12,403.44z"/>
	<path d="M314.73,404.5c1.07-0.18,1.88,0.14,2.31,1.11c0.42,0.95,0.05,1.75-0.58,2.53c-1.72,2.12-3.91,3.17-6.62,3.25
		c-0.95,0.03-1.74-0.31-2.04-1.14c-0.17-0.47,0.03-1.26,0.35-1.71C309.76,406.26,311.99,404.93,314.73,404.5z"/>
	<path d="M288.86,392.33c2.78-0.09,4.75,1.02,6.52,2.6c0.72,0.64,1.05,1.61,0.54,2.37c-0.4,0.6-1.32,1.21-2.01,1.2
		c-2.74-0.03-5.22-0.97-7.08-3.05c-0.43-0.49-0.57-1.53-0.38-2.19c0.12-0.43,1.05-0.68,1.65-0.91
		C288.42,392.24,288.81,392.33,288.86,392.33z"/>
	<path d="M276.64,407.65c-0.85-0.38-2-0.53-2.49-1.19c-0.78-1.02,0.2-1.95,0.79-2.86c1.1-1.7,5.41-3,7.52-2.46
		c0.92,0.23,1.41,1.35,0.89,2.18c-1.51,2.42-3.5,4.13-6.57,4.01C276.74,407.43,276.69,407.54,276.64,407.65z"/>
	<path d="M293.19,411.35c-2.29-0.16-4.61-0.55-6.34-2.37c-0.53-0.56-0.99-1.42-1-2.15c0-0.42,0.91-0.99,1.51-1.25
		c2.03-0.84,6.64,0.65,8,2.75c0.33,0.51,0.63,1.41,0.4,1.82c-0.32,0.56-1.15,0.83-1.79,1.17
		C293.79,411.44,293.51,411.35,293.19,411.35z"/>
</g>
</svg>
