<?xml version="1.0" encoding="utf-8"?>
<!-- Generator: Adobe Illustrator 24.1.1, SVG Export Plug-In . SVG Version: 6.00 Build 0)  -->
<svg version="1.1" id="Capa_1" xmlns="http://www.w3.org/2000/svg" xmlns:xlink="http://www.w3.org/1999/xlink" x="0px" y="0px"
	 viewBox="0 0 612 792" style="enable-background:new 0 0 612 792;" xml:space="preserve">
<style type="text/css">
	.st0{fill:#FFFFFF;}
</style>
<g>
	<path class="st0" d="M235,337c47.27,0,94.54,0,141.84,0c0,39.58,0,79.17,0,118.8c-47.26,0-94.55,0-141.84,0
		C235,416.23,235,376.62,235,337z M306.14,352.66c-0.23-0.18-0.49-0.36-0.72-0.57c-6.48-5.82-14.24-8.51-22.77-9.24
		c-4.29-0.37-8.53,0.32-12.71,1.22c-9.84,2.12-18.62,6.55-26.74,12.41c-1.1,0.79-1.56,1.81-1.57,3.16
		c-0.07,22.36-0.17,44.72-0.24,67.07c0,1.03,0.08,2.07,0.2,3.09c0.18,1.5,1.28,2.2,2.75,1.81c0.35-0.09,0.68-0.23,1.01-0.36
		c9.15-3.44,18.56-5.58,28.39-5.6c9.4-0.01,18.29,2.03,26.5,6.7c1.34,0.76,2.7,1.59,3.79,2.66c1.34,1.32,3.09,1.41,4.31-0.07
		c0.27-0.33,0.63-0.61,0.99-0.84c5.04-3.35,10.52-5.69,16.42-7.02c10.68-2.41,21.27-1.62,31.75,1.16c3.46,0.92,6.84,2.18,10.25,3.28
		c1.67,0.54,2.86-0.09,3.09-1.74c0.15-1.1,0.26-2.21,0.25-3.32c-0.1-22.28-0.23-44.55-0.32-66.83c-0.01-1.41-0.55-2.41-1.68-3.23
		c-5.6-4.03-11.55-7.44-18.05-9.79c-8-2.89-16.16-4.66-24.75-3.32c-5.48,0.86-10.62,2.57-15.23,5.7
		C309.39,350.13,307.81,351.41,306.14,352.66z M305.38,441.33c-0.15-0.16-0.44-0.54-0.8-0.84c-1.93-1.66-3.75-3.5-5.84-4.93
		c-7.06-4.81-15.07-6.56-23.48-6.77c-10.15-0.26-19.92,1.76-29.45,5.08c-1.28,0.45-2.56,0.9-3.79,1.46
		c-1.59,0.73-1.89,1.98-0.92,3.42c0.96,1.42,2.54,1.86,4.34,1.26c3.45-1.14,6.85-2.43,10.36-3.34c8.69-2.26,17.49-3.25,26.44-1.67
		c5.64,0.99,10.87,2.99,15.23,6.78c1.88,1.63,3.52,3.58,5.06,5.55c2.06,2.64,4.22,2.72,6.15,0.03c0.16-0.23,0.3-0.48,0.49-0.68
		c1.61-1.71,3.06-3.61,4.86-5.09c6.22-5.12,13.62-6.98,21.48-7.28c8.59-0.33,16.93,1.18,25.08,3.84c1.93,0.63,3.82,1.4,5.76,2.01
		c1.72,0.55,3.63-0.47,4.15-2.12c0.46-1.44-0.17-2.34-2.17-3.09c-0.07-0.03-0.15-0.06-0.22-0.09c-11.67-4.43-23.65-6.96-36.21-5.82
		c-6.72,0.61-13.15,2.33-18.79,6.16C310.45,437.01,308.06,439.19,305.38,441.33z"/>
	<path d="M306.14,352.66c1.67-1.25,3.25-2.53,4.92-3.67c4.61-3.13,9.75-4.84,15.23-5.7c8.59-1.34,16.75,0.43,24.75,3.32
		c6.5,2.35,12.45,5.76,18.05,9.79c1.13,0.82,1.68,1.82,1.68,3.23c0.1,22.28,0.22,44.56,0.32,66.83c0.01,1.11-0.1,2.22-0.25,3.32
		c-0.23,1.65-1.42,2.28-3.09,1.74c-3.41-1.11-6.79-2.37-10.25-3.28c-10.48-2.78-21.07-3.57-31.75-1.16
		c-5.9,1.33-11.38,3.68-16.42,7.02c-0.36,0.24-0.71,0.51-0.99,0.84c-1.22,1.48-2.97,1.39-4.31,0.07c-1.09-1.07-2.45-1.89-3.79-2.66
		c-8.21-4.67-17.11-6.71-26.5-6.7c-9.82,0.01-19.23,2.16-28.39,5.6c-0.34,0.13-0.67,0.27-1.01,0.36c-1.47,0.39-2.57-0.31-2.75-1.81
		c-0.12-1.02-0.2-2.06-0.2-3.09c0.08-22.36,0.17-44.72,0.24-67.07c0-1.36,0.47-2.37,1.57-3.16c8.12-5.85,16.9-10.28,26.74-12.41
		c4.18-0.9,8.42-1.59,12.71-1.22c8.52,0.73,16.29,3.42,22.77,9.24C305.65,352.31,305.91,352.49,306.14,352.66z M366.13,425.84
		c0.03-0.37,0.07-0.64,0.07-0.92c-0.09-21.36-0.18-42.73-0.3-64.09c0-0.43-0.28-1.02-0.62-1.26c-8.28-5.79-17.21-10.11-27.32-11.53
		c-11.15-1.57-21.08,1.04-29.33,9c-1.74,1.68-3.14,1.69-4.85,0c-2.9-2.87-6.22-5.14-9.96-6.74c-7.39-3.16-15.03-3.34-22.79-1.67
		c-8.72,1.89-16.53,5.78-23.83,10.81c-0.63,0.43-0.74,0.91-0.74,1.6c-0.07,21.08-0.16,42.17-0.25,63.25c0,0.49,0,0.98,0,1.47
		c0.29-0.02,0.37-0.01,0.45-0.04c0.42-0.13,0.84-0.27,1.25-0.4c7.93-2.64,16.05-4.25,24.42-4.42c11.78-0.24,22.82,2.31,32.77,8.85
		c0.82,0.54,1.39,0.54,2.21,0c7.66-5.06,16.13-7.76,25.24-8.59c9.51-0.87,18.8,0.35,27.95,2.93
		C362.35,424.63,364.2,425.24,366.13,425.84z"/>
	<path d="M305.38,441.33c2.67-2.14,5.07-4.32,7.72-6.12c5.65-3.84,12.07-5.56,18.79-6.16c12.55-1.14,24.54,1.39,36.21,5.82
		c0.07,0.03,0.15,0.06,0.22,0.09c2,0.76,2.62,1.65,2.17,3.09c-0.52,1.65-2.43,2.67-4.15,2.12c-1.94-0.62-3.83-1.38-5.76-2.01
		c-8.15-2.66-16.48-4.18-25.08-3.84c-7.86,0.31-15.27,2.17-21.48,7.28c-1.8,1.48-3.26,3.38-4.86,5.09c-0.19,0.2-0.32,0.45-0.49,0.68
		c-1.93,2.7-4.09,2.61-6.15-0.03c-1.54-1.97-3.18-3.92-5.06-5.55c-4.36-3.78-9.59-5.79-15.23-6.78c-8.95-1.58-17.75-0.59-26.44,1.67
		c-3.51,0.91-6.91,2.2-10.36,3.34c-1.81,0.6-3.39,0.16-4.34-1.26c-0.97-1.43-0.67-2.69,0.92-3.42c1.23-0.56,2.51-1.02,3.79-1.46
		c9.53-3.33,19.3-5.35,29.45-5.08c8.4,0.22,16.41,1.96,23.48,6.77c2.09,1.43,3.91,3.26,5.84,4.93
		C304.94,440.79,305.23,441.17,305.38,441.33z"/>
	<path class="st0" d="M366.13,425.84c-1.93-0.59-3.77-1.21-5.64-1.73c-9.15-2.58-18.44-3.8-27.95-2.93
		c-9.1,0.83-17.58,3.53-25.24,8.59c-0.82,0.54-1.38,0.54-2.21,0c-9.95-6.53-20.99-9.09-32.77-8.85c-8.37,0.17-16.49,1.78-24.42,4.42
		c-0.42,0.14-0.83,0.27-1.25,0.4c-0.07,0.02-0.15,0.01-0.45,0.04c0-0.5,0-0.99,0-1.47c0.09-21.08,0.18-42.17,0.25-63.25
		c0-0.69,0.12-1.17,0.74-1.6c7.3-5.03,15.11-8.93,23.83-10.81c7.75-1.68,15.4-1.49,22.79,1.67c3.74,1.6,7.06,3.87,9.96,6.74
		c1.7,1.69,3.11,1.67,4.85,0c8.26-7.96,18.18-10.57,29.33-9c10.11,1.42,19.04,5.74,27.32,11.53c0.34,0.24,0.62,0.83,0.62,1.26
		c0.12,21.36,0.21,42.73,0.3,64.09C366.2,425.2,366.16,425.47,366.13,425.84z M269.24,368.94c0.02,0,0.04,0,0.07,0
		c0-1.92,0.01-3.83,0-5.75c-0.01-2.14-0.65-2.92-2.73-2.89c-4.27,0.07-8.32,1.01-11.81,3.63c-0.54,0.41-1.06,1.2-1.11,1.85
		c-0.26,3.58-0.37,7.17-0.55,10.75c-0.08,1.66-0.04,3.16,1.53,4.35c0.96,0.73,1.73,1.12,2.76,0.48c3.21-2,6.63-3.48,10.33-4.31
		c1.03-0.23,1.52-0.93,1.52-2C269.23,373.01,269.24,370.97,269.24,368.94z M297.06,397.69c-0.26-0.29-0.63-1.03-1.23-1.33
		c-1.88-0.95-3.79-1.92-5.79-2.56c-13.58-4.33-25.89-1.01-37.47,6.42c-0.48,0.31-1.02,1.01-1,1.5c0.03,0.75,0.37,1.63,0.88,2.17
		c0.72,0.75,1.63,0.32,2.41-0.18c3.47-2.24,7.1-4.14,11.02-5.46c7.42-2.5,14.91-3.09,22.45-0.59c1.92,0.64,3.73,1.61,5.6,2.39
		C295.54,400.72,297.09,399.74,297.06,397.69z M358.72,409.68c-0.3-0.33-0.75-1.12-1.42-1.52c-1.43-0.85-2.96-1.56-4.5-2.22
		c-8.77-3.76-17.8-5.16-27.23-3.01c-4.13,0.94-7.94,2.63-11.47,4.95c-1.44,0.95-1.59,2.48-0.37,3.48c0.92,0.75,1.83,0.52,2.77-0.01
		c1.64-0.91,3.24-1.91,4.95-2.64c8.29-3.54,16.73-3.28,25.14-0.55c3.09,1,6.02,2.52,9.01,3.83
		C357.25,412.71,358.71,411.88,358.72,409.68z M357.89,399.85c-0.27-0.31-0.68-1.11-1.33-1.46c-10.24-5.52-20.99-7.91-32.54-5.09
		c-3.91,0.95-7.52,2.62-10.87,4.85c-1.32,0.89-1.39,2.47-0.21,3.42c0.93,0.76,1.81,0.44,2.77-0.04c2.52-1.27,4.99-2.73,7.64-3.62
		c7.62-2.57,15.28-1.98,22.79,0.55c2.93,0.99,5.72,2.42,8.55,3.69C356.42,402.91,357.9,402.11,357.89,399.85z M297.06,407.5
		c-0.28-0.3-0.7-1.01-1.33-1.36c-4.15-2.34-8.63-3.76-13.37-4.21c-10.93-1.05-20.72,2.18-29.75,8.11c-0.48,0.32-0.91,0.93-1.07,1.49
		c-0.26,0.91,0.12,1.73,0.92,2.29c0.83,0.58,1.61,0.27,2.34-0.21c3.45-2.27,7.1-4.14,11.01-5.48c7.45-2.55,14.97-3.11,22.54-0.63
		c1.92,0.63,3.73,1.61,5.6,2.4C295.54,410.58,297.09,409.6,297.06,407.5z M357.05,390.04c-0.28-0.32-0.71-1.11-1.38-1.51
		c-1.43-0.85-2.96-1.57-4.5-2.23c-9.05-3.86-18.36-5.27-28.04-2.82c-3.82,0.97-7.37,2.58-10.66,4.75c-0.78,0.51-1.36,1.15-1.15,2.17
		c0.19,0.94,0.76,1.7,1.72,1.75c0.69,0.03,1.49-0.26,2.1-0.64c8.54-5.36,17.7-6.14,27.29-3.75c4.01,1,7.79,2.58,11.43,4.52
		C355.54,393.18,357.02,392.34,357.05,390.04z M277.12,382.02c-8.04,0.06-16.56,3.1-24.4,8.25c-0.52,0.34-1.12,1.02-1.14,1.55
		c-0.02,0.74,0.32,1.63,0.82,2.19c0.69,0.78,1.62,0.41,2.4-0.1c3.45-2.26,7.1-4.13,11-5.48c6.27-2.17,12.68-3.02,19.18-1.49
		c2.99,0.71,5.84,2.06,8.73,3.18c1.47,0.57,2.56,0.31,3.14-0.93c0.53-1.13,0.12-2.12-1.2-2.83
		C290.32,383.48,284.62,382.05,277.12,382.02z M334.76,372.41c-5.16-0.04-9.41,0.45-13.42,2.02c-2.8,1.1-5.47,2.58-8.13,4
		c-1.21,0.65-1.42,1.81-0.78,2.85c0.64,1.05,1.72,1.33,2.91,0.72c0.53-0.27,1.03-0.61,1.54-0.92c2.78-1.69,5.76-2.9,8.94-3.62
		c7.77-1.77,15.3-0.75,22.64,2.09c2.15,0.83,4.2,1.93,6.3,2.9c1.36,0.63,2.4,0.33,2.92-0.83c0.51-1.13,0.14-2.28-1.07-2.94
		C349.54,374.8,342.02,372.53,334.76,372.41z M357.05,370.3c-0.29-0.32-0.74-1.08-1.42-1.49c-1.4-0.84-2.88-1.55-4.39-2.19
		c-9.95-4.21-20.15-5.61-30.58-2.04c-2.88,0.99-5.55,2.59-8.26,4.03c-1.23,0.65-1.43,1.78-0.79,2.85c0.64,1.06,1.71,1.34,2.9,0.73
		c0.53-0.27,1.01-0.66,1.55-0.91c2.13-0.99,4.21-2.15,6.42-2.89c7.48-2.5,14.98-2.05,22.36,0.41c3.09,1.03,6.03,2.5,9.02,3.82
		C355.61,373.39,357.05,372.61,357.05,370.3z M283.49,359.6c-2.22,0.44-4.45,0.82-6.65,1.36c-1.46,0.35-2.08,1.53-1.69,2.8
		c0.38,1.24,1.26,1.7,2.76,1.23c5.04-1.58,9.82-1.08,14.41,1.52c1.34,0.76,2.44,0.41,3.05-0.77c0.6-1.15,0.21-2.21-1.13-2.97
		C290.93,360.89,287.37,359.87,283.49,359.6z M280.83,369.57c-0.92,0.12-2.75,0.29-4.55,0.6c-1.22,0.21-1.74,1.04-1.6,2.14
		c0.15,1.14,0.96,1.91,2.08,1.91c0.59,0,1.19-0.18,1.78-0.17c2.38,0.04,4.83-0.2,7.12,0.27c2.14,0.44,4.12,1.63,6.16,2.53
		c1.17,0.51,2.09,0.33,2.71-0.65c0.63-0.99,0.44-2.13-0.48-2.89c-0.18-0.15-0.39-0.27-0.6-0.4
		C289.87,370.68,285.95,369.62,280.83,369.57z"/>
	<path d="M269.24,368.94c0,2.04-0.01,4.07,0,6.11c0.01,1.07-0.48,1.77-1.52,2c-3.7,0.83-7.12,2.31-10.33,4.31
		c-1.03,0.64-1.8,0.25-2.76-0.48c-1.57-1.19-1.61-2.69-1.53-4.35c0.18-3.59,0.29-7.17,0.55-10.75c0.05-0.65,0.57-1.44,1.11-1.85
		c3.48-2.62,7.53-3.57,11.81-3.63c2.08-0.03,2.72,0.75,2.73,2.89c0.01,1.92,0,3.83,0,5.75
		C269.28,368.94,269.26,368.94,269.24,368.94z M257.28,376.28c0.33-0.03,0.45-0.02,0.55-0.06c2.21-0.89,4.43-1.76,6.6-2.72
		c0.31-0.13,0.59-0.7,0.6-1.07c0.06-2.07,0.03-4.14,0.02-6.21c0-0.53-0.05-1.06-0.08-1.61c-2.45,0.21-4.6,0.86-6.6,2.01
		c-0.29,0.17-0.68,0.46-0.7,0.72C257.51,370.3,257.4,373.26,257.28,376.28z"/>
	<path d="M297.06,397.69c0.03,2.05-1.52,3.03-3.12,2.36c-1.87-0.79-3.68-1.76-5.6-2.39c-7.54-2.5-15.03-1.91-22.45,0.59
		c-3.92,1.32-7.55,3.22-11.02,5.46c-0.77,0.5-1.69,0.93-2.41,0.18c-0.51-0.54-0.85-1.42-0.88-2.17c-0.02-0.49,0.52-1.19,1-1.5
		c11.58-7.43,23.89-10.75,37.47-6.42c2,0.64,3.91,1.61,5.79,2.56C296.43,396.66,296.8,397.4,297.06,397.69z"/>
	<path d="M358.72,409.68c-0.01,2.21-1.47,3.03-3.11,2.31c-2.99-1.31-5.92-2.83-9.01-3.83c-8.41-2.73-16.85-2.99-25.14,0.55
		c-1.71,0.73-3.32,1.73-4.95,2.64c-0.94,0.52-1.86,0.76-2.77,0.01c-1.22-1-1.07-2.53,0.37-3.48c3.53-2.32,7.34-4.02,11.47-4.95
		c9.42-2.15,18.46-0.75,27.23,3.01c1.54,0.66,3.06,1.37,4.5,2.22C357.97,408.56,358.41,409.34,358.72,409.68z"/>
	<path d="M357.89,399.85c0.01,2.26-1.47,3.06-3.19,2.29c-2.83-1.27-5.62-2.7-8.55-3.69c-7.51-2.53-15.17-3.12-22.79-0.55
		c-2.65,0.89-5.12,2.36-7.64,3.62c-0.96,0.48-1.84,0.79-2.77,0.04c-1.18-0.96-1.11-2.54,0.21-3.42c3.34-2.24,6.96-3.9,10.87-4.85
		c11.54-2.82,22.3-0.43,32.54,5.09C357.21,398.73,357.61,399.53,357.89,399.85z"/>
	<path d="M297.06,407.5c0.03,2.09-1.53,3.07-3.11,2.4c-1.87-0.79-3.68-1.77-5.6-2.4c-7.57-2.49-15.1-1.93-22.54,0.63
		c-3.91,1.34-7.56,3.21-11.01,5.48c-0.73,0.48-1.51,0.79-2.34,0.21c-0.8-0.56-1.18-1.38-0.92-2.29c0.16-0.56,0.59-1.17,1.07-1.49
		c9.03-5.93,18.83-9.15,29.75-8.11c4.74,0.45,9.22,1.87,13.37,4.21C296.36,406.5,296.78,407.21,297.06,407.5z"/>
	<path d="M357.05,390.04c-0.03,2.3-1.51,3.14-3.21,2.24c-3.64-1.94-7.42-3.53-11.43-4.52c-9.59-2.38-18.75-1.61-27.29,3.75
		c-0.61,0.38-1.4,0.67-2.1,0.64c-0.95-0.04-1.52-0.81-1.72-1.75c-0.21-1.02,0.37-1.66,1.15-2.17c3.29-2.16,6.84-3.78,10.66-4.75
		c9.68-2.45,18.99-1.04,28.04,2.82c1.54,0.66,3.06,1.38,4.5,2.23C356.34,388.93,356.77,389.72,357.05,390.04z"/>
	<path d="M277.12,382.02c7.5,0.03,13.2,1.47,18.54,4.35c1.32,0.71,1.73,1.7,1.2,2.83c-0.58,1.23-1.67,1.5-3.14,0.93
		c-2.89-1.12-5.74-2.47-8.73-3.18c-6.5-1.53-12.92-0.68-19.18,1.49c-3.9,1.35-7.55,3.21-11,5.48c-0.77,0.51-1.71,0.88-2.4,0.1
		c-0.49-0.56-0.83-1.46-0.82-2.19c0.01-0.53,0.62-1.21,1.14-1.55C260.56,385.11,269.08,382.07,277.12,382.02z"/>
	<path d="M334.76,372.41c7.26,0.12,14.78,2.39,21.85,6.27c1.21,0.66,1.58,1.81,1.07,2.94c-0.53,1.17-1.56,1.46-2.92,0.83
		c-2.1-0.97-4.15-2.07-6.3-2.9c-7.34-2.83-14.87-3.85-22.64-2.09c-3.18,0.72-6.16,1.93-8.94,3.62c-0.51,0.31-1.01,0.65-1.54,0.92
		c-1.19,0.61-2.27,0.33-2.91-0.72c-0.64-1.04-0.43-2.21,0.78-2.85c2.66-1.43,5.33-2.9,8.13-4
		C325.35,372.86,329.6,372.37,334.76,372.41z"/>
	<path d="M357.05,370.3c0.01,2.32-1.44,3.09-3.18,2.32c-2.99-1.32-5.93-2.8-9.02-3.82c-7.38-2.45-14.88-2.91-22.36-0.41
		c-2.22,0.74-4.29,1.9-6.42,2.89c-0.54,0.25-1.02,0.64-1.55,0.91c-1.19,0.61-2.25,0.33-2.9-0.73c-0.65-1.06-0.45-2.19,0.79-2.85
		c2.71-1.44,5.38-3.04,8.26-4.03c10.43-3.57,20.63-2.17,30.58,2.04c1.5,0.64,2.99,1.35,4.39,2.19
		C356.3,369.21,356.76,369.98,357.05,370.3z"/>
	<path d="M283.49,359.6c3.88,0.26,7.44,1.29,10.76,3.18c1.33,0.76,1.72,1.82,1.13,2.97c-0.61,1.17-1.71,1.52-3.05,0.77
		c-4.6-2.6-9.38-3.1-14.41-1.52c-1.5,0.47-2.38,0.01-2.76-1.23c-0.39-1.27,0.22-2.45,1.69-2.8
		C279.04,360.43,281.27,360.05,283.49,359.6z"/>
	<path d="M280.83,369.57c5.12,0.05,9.04,1.11,12.62,3.34c0.2,0.13,0.41,0.25,0.6,0.4c0.93,0.76,1.12,1.9,0.48,2.89
		c-0.62,0.97-1.54,1.16-2.71,0.65c-2.04-0.9-4.02-2.09-6.16-2.53c-2.3-0.47-4.74-0.24-7.12-0.27c-0.59-0.01-1.19,0.17-1.78,0.17
		c-1.13,0-1.93-0.77-2.08-1.91c-0.15-1.1,0.38-1.93,1.6-2.14C278.08,369.86,279.91,369.69,280.83,369.57z"/>
	<path class="st0" d="M257.28,376.28c0.12-3.02,0.23-5.98,0.4-8.94c0.01-0.26,0.41-0.55,0.7-0.72c1.99-1.15,4.14-1.8,6.6-2.01
		c0.03,0.55,0.08,1.08,0.08,1.61c0.01,2.07,0.03,4.14-0.02,6.21c-0.01,0.37-0.29,0.94-0.6,1.07c-2.18,0.96-4.4,1.83-6.6,2.72
		C257.73,376.26,257.61,376.25,257.28,376.28z"/>
</g>
</svg>
