<?xml version="1.0" encoding="utf-8"?>
<!-- Generator: Adobe Illustrator 24.1.1, SVG Export Plug-In . SVG Version: 6.00 Build 0)  -->
<svg version="1.1" id="Capa_1" xmlns="http://www.w3.org/2000/svg" xmlns:xlink="http://www.w3.org/1999/xlink" x="0px" y="0px"
	 viewBox="0 0 612 792" style="enable-background:new 0 0 612 792;" xml:space="preserve">
<style type="text/css">
	.st0{fill:#FFFFFF;}
</style>
<g>
	<path class="st0" d="M376.84,447.96c-47.27,0-94.55,0-141.84,0c0-34.31,0-68.62,0-102.96c47.27,0,94.55,0,141.84,0
		C376.84,379.31,376.84,413.63,376.84,447.96z M368.25,398.04c-0.39,0.1-0.69,0.15-0.97,0.24c-1.06,0.33-2.09,0.79-3.17,1
		c-6,1.19-11.57-0.74-17.01-2.77c-3.67-1.37-7.04-3.53-10.55-5.33c-1.07-0.55-1.51-1.32-1.49-2.58c0.08-5.03,0.03-10.06,0.06-15.09
		c0.01-0.96-0.39-1.25-1.32-1.16c-3.53,0.35-7.06,0.89-10.6,0.93c-11.62,0.13-23.23,0.16-34.85,0.03
		c-3.93-0.04-7.85-0.65-11.77-1.02c-0.78-0.07-1.11,0.19-1.1,0.98c0.02,2.79,0.02,5.58,0.03,8.37c0.01,2.23,0.01,4.47,0.03,6.7
		c0.01,1.32-0.28,2.38-1.68,2.97c-1.13,0.48-2.13,1.24-3.2,1.85c-4.51,2.53-9.28,4.32-14.31,5.56c-4.59,1.13-9.04,1.27-13.47-0.56
		c-0.24-0.1-0.58,0.04-0.87,0.08c0.03,0.26-0.03,0.61,0.11,0.78c0.65,0.75,1.29,1.53,2.06,2.14c1.79,1.4,3.89,2.09,6.13,2.46
		c3.92,0.65,7.81,1.62,11.75,2c5.83,0.57,11.7,0.99,17.56,1.06c14.73,0.17,29.47,0.18,44.2,0.11c11.17-0.05,22.35-0.26,33.37-2.41
		c3.28-0.64,6.59-1.27,9.37-3.31C367.49,400.38,368.42,399.59,368.25,398.04z M281.11,438.07c0,0.06,0,0.11,0,0.17
		c5.79,0,11.57,0,17.36,0c8.18,0,16.36-0.01,24.54-0.01c5.82,0,11.65,0.01,17.47,0.01c4.83,0,9.66-0.02,14.49-0.03
		c1.74-0.01,1.91-0.22,1.86-1.94c-0.1-3.58,0.42-3.48-3.46-3.36c-0.96,0.03-1.34-0.33-1.33-1.34c0.05-6.59,0.06-13.17,0.07-19.76
		c0-2.49-0.01-2.41-2.48-2.44c-1.27-0.01-1.5,0.46-1.49,1.63c0.06,6.78,0.04,13.57,0.02,20.36c0,1.42-0.23,1.58-1.61,1.56
		c-1.68-0.02-3.35-0.02-5.03-0.01c-1.39,0-1.51-0.14-1.51-1.49c0.02-6.62,0.01-13.25,0.04-19.87c0.01-1.05-0.41-1.44-1.44-1.37
		c-2.03,0.15-4.06,0.32-6.1,0.35c-11.34,0.16-22.67,0.28-34.01,0.39c-2.83,0.03-5.67,0.03-8.5-0.06
		c-6.82-0.21-13.65-0.49-20.47-0.74c-0.89-0.03-1.63-0.09-1.61,1.25c0.07,6.74,0.05,13.49,0.08,20.23c0,0.98-0.44,1.34-1.39,1.32
		c-2.08-0.04-4.15-0.05-6.23-0.01c-1.07,0.02-1.51-0.42-1.5-1.49c0.05-6.34,0.08-12.69,0.1-19.03c0.01-2.92,0-2.92-2.69-3.68
		c-0.04-0.01-0.07-0.03-0.11-0.04c-0.89-0.22-1.24,0.11-1.23,1.04c0.05,7.26,0.05,14.53,0.1,21.79c0.01,1.1-0.46,1.49-1.53,1.44
		c-1.39-0.07-2.79-0.06-4.19-0.07c-0.97-0.01-1.52,0.3-1.32,1.43c0.12,0.66,0.08,1.36,0.01,2.03c-0.16,1.54,0.11,1.89,1.73,1.87
		c4.59-0.04,9.18-0.11,13.77-0.13C269.37,438.06,275.24,438.07,281.11,438.07z M268.3,366.15c-0.11,0.16-0.22,0.31-0.33,0.47
		c0.49,0.43,0.92,0.97,1.48,1.29c2.87,1.65,6.16,1.98,9.31,2.43c4.29,0.61,8.67,0.7,13.02,0.78c6.87,0.13,13.73,0.15,20.6,0.07
		c8.45-0.1,16.94,0.19,25.22-2c1.51-0.4,2.92-1.19,4.34-1.87c0.2-0.1,0.21-0.6,0.31-0.91c-0.32-0.05-0.64-0.16-0.95-0.13
		c-0.39,0.04-0.75,0.23-1.14,0.3c-4.24,0.74-8.25-0.27-11.88-2.26c-3.55-1.95-7.03-3.45-11.18-2.79c-0.58,0.09-1.38-0.38-1.87-0.82
		c-1.34-1.2-2.56-2.52-3.83-3.79c-1.78-1.78-3.56-3.55-5.35-5.32c-0.47-0.46-0.91-0.73-1.51-0.1c-2.55,2.63-5.21,5.16-7.68,7.87
		c-1.56,1.71-3.22,2.49-5.56,2.15c-1.34-0.19-2.81-0.08-4.11,0.28c-1.19,0.33-2.24,1.19-3.34,1.82c-4.31,2.45-8.89,3.67-13.87,2.93
		C269.41,366.46,268.86,366.28,268.3,366.15z"/>
	<path d="M368.25,398.04c0.17,1.56-0.76,2.35-1.7,3.04c-2.78,2.04-6.09,2.67-9.37,3.31c-11.02,2.15-22.2,2.36-33.37,2.41
		c-14.73,0.07-29.47,0.06-44.2-0.11c-5.86-0.07-11.73-0.49-17.56-1.06c-3.94-0.39-7.83-1.35-11.75-2c-2.24-0.37-4.34-1.06-6.13-2.46
		c-0.77-0.6-1.41-1.39-2.06-2.14c-0.14-0.17-0.08-0.51-0.11-0.78c0.29-0.03,0.63-0.17,0.87-0.08c4.43,1.83,8.88,1.7,13.47,0.56
		c5.03-1.24,9.8-3.03,14.31-5.56c1.08-0.6,2.08-1.37,3.2-1.85c1.4-0.59,1.69-1.65,1.68-2.97c-0.02-2.23-0.02-4.47-0.03-6.7
		c-0.01-2.79-0.01-5.58-0.03-8.37c-0.01-0.79,0.32-1.05,1.1-0.98c3.92,0.38,7.85,0.98,11.77,1.02c11.62,0.13,23.23,0.1,34.85-0.03
		c3.54-0.04,7.07-0.58,10.6-0.93c0.93-0.09,1.33,0.2,1.32,1.16c-0.03,5.03,0.01,10.06-0.06,15.09c-0.02,1.26,0.42,2.03,1.49,2.58
		c3.51,1.79,6.88,3.96,10.55,5.33c5.43,2.03,11.01,3.96,17.01,2.77c1.08-0.21,2.11-0.67,3.17-1
		C367.56,398.18,367.85,398.13,368.25,398.04z M291.75,382.27c-0.04,0-0.07,0-0.11,0c0-1.23,0-2.47,0-3.7c0-0.67-0.21-1.2-1-1.21
		c-2.15-0.01-4.3-0.03-6.45,0.06c-0.33,0.01-0.9,0.59-0.91,0.91c-0.09,2.83-0.06,5.65-0.08,8.48c-0.01,0.79,0.36,1.17,1.16,1.17
		c2.07,0,4.14,0.02,6.21,0.01c0.84-0.01,1.2-0.49,1.19-1.31C291.74,385.21,291.75,383.74,291.75,382.27z M295.7,382.57
		c-0.01,0-0.02,0-0.03,0c0,1.39,0.04,2.79-0.02,4.18c-0.04,0.85,0.23,1.28,1.12,1.28c1.99-0.01,3.99,0.02,5.98,0.02
		c0.68,0,1.2-0.25,1.2-1.02c0.01-2.87,0-5.74-0.03-8.61c-0.01-0.71-0.39-1.1-1.13-1.1c-1.99,0.02-3.99,0.04-5.98,0.04
		c-0.78,0-1.17,0.29-1.14,1.14C295.74,379.86,295.7,381.21,295.7,382.57z M315.43,382.72c0,0-0.01,0-0.01,0
		c0-1.4-0.01-2.79,0.01-4.19c0.01-0.73-0.29-1.16-1.03-1.17c-2.04-0.01-4.07-0.02-6.11,0.01c-0.74,0.01-1.14,0.37-1.13,1.21
		c0.03,2.67,0.03,5.35-0.01,8.02c-0.01,0.96,0.36,1.42,1.32,1.41c1.92-0.01,3.83-0.01,5.75,0.01c0.93,0.01,1.25-0.46,1.22-1.35
		C315.4,385.35,315.43,384.03,315.43,382.72z M319.09,382.69c0,1.31,0.07,2.63-0.02,3.94c-0.07,1,0.31,1.4,1.27,1.39
		c1.87-0.01,3.75-0.03,5.62,0c0.92,0.02,1.38-0.45,1.37-1.28c0-2.79-0.07-5.58-0.11-8.36c-0.01-0.75-0.39-1.06-1.14-1.05
		c-1.95,0.02-3.91,0.02-5.86,0.02c-0.79,0-1.17,0.33-1.15,1.16C319.11,379.9,319.09,381.3,319.09,382.69z"/>
	<path d="M281.11,438.07c-5.87,0-11.74-0.02-17.6,0.01c-4.59,0.02-9.18,0.1-13.77,0.13c-1.62,0.01-1.89-0.33-1.73-1.87
		c0.07-0.67,0.11-1.37-0.01-2.03c-0.2-1.14,0.35-1.45,1.32-1.43c1.4,0.02,2.8,0,4.19,0.07c1.07,0.06,1.54-0.34,1.53-1.44
		c-0.05-7.26-0.06-14.53-0.1-21.79c-0.01-0.92,0.35-1.26,1.23-1.04c0.04,0.01,0.07,0.03,0.11,0.04c2.69,0.76,2.7,0.76,2.69,3.68
		c-0.03,6.34-0.05,12.69-0.1,19.03c-0.01,1.07,0.43,1.51,1.5,1.49c2.08-0.04,4.15-0.03,6.23,0.01c0.96,0.02,1.4-0.35,1.39-1.32
		c-0.03-6.74-0.01-13.49-0.08-20.23c-0.01-1.34,0.73-1.28,1.61-1.25c6.82,0.25,13.64,0.52,20.47,0.74c2.83,0.09,5.67,0.09,8.5,0.06
		c11.34-0.11,22.67-0.24,34.01-0.39c2.03-0.03,4.07-0.2,6.1-0.35c1.03-0.07,1.44,0.32,1.44,1.37c-0.03,6.62-0.02,13.25-0.04,19.87
		c0,1.35,0.11,1.49,1.51,1.49c1.68,0,3.35-0.01,5.03,0.01c1.38,0.02,1.61-0.14,1.61-1.56c0.02-6.79,0.04-13.57-0.02-20.36
		c-0.01-1.17,0.22-1.64,1.49-1.63c2.47,0.02,2.48-0.05,2.48,2.44c-0.01,6.59-0.01,13.17-0.07,19.76c-0.01,1.01,0.37,1.37,1.33,1.34
		c3.89-0.12,3.36-0.22,3.46,3.36c0.05,1.72-0.12,1.93-1.86,1.94c-4.83,0.02-9.66,0.03-14.49,0.03c-5.82,0-11.65-0.01-17.47-0.01
		c-8.18,0-16.36,0.01-24.54,0.01c-5.79,0-11.57,0-17.36,0C281.11,438.19,281.11,438.13,281.11,438.07z M305.58,423.18
		c0,2.87,0.02,5.74-0.01,8.61c-0.01,0.94,0.5,1.15,1.29,1.14c1.79-0.01,3.59-0.04,5.38,0.03c0.97,0.04,1.26-0.37,1.25-1.27
		c-0.03-1.79,0.01-3.59,0-5.38c-0.02-3.91-0.05-7.81-0.06-11.72c0-0.68-0.15-1.22-0.95-1.23c-1.91-0.01-3.83-0.01-5.74,0.03
		c-0.69,0.02-1.18,0.3-1.17,1.17C305.61,417.44,305.58,420.31,305.58,423.18z M297.28,423.13c0.02,0,0.03,0,0.05,0
		c0,2.87,0.02,5.74-0.01,8.61c-0.01,0.94,0.37,1.26,1.29,1.22c1.55-0.07,3.11-0.02,4.67-0.05c1.36-0.02,1.58-0.32,1.57-1.64
		c-0.04-5.42-0.06-10.85-0.06-16.27c0-1.33-0.16-1.59-1.54-1.63c-1.59-0.04-3.19-0.02-4.79-0.02c-0.86,0-1.19,0.45-1.19,1.28
		C297.3,417.47,297.28,420.3,297.28,423.13z M287.09,420.17C287.09,420.17,287.1,420.17,287.09,420.17
		c0.01-1.75-0.01-3.51,0.01-5.26c0.02-1.3-0.28-1.59-1.59-1.57c-2.31,0.03-4.63,0.04-6.94,0.02c-1.37-0.01-1.69,0.28-1.69,1.66
		c-0.01,3.55,0,7.1-0.03,10.64c-0.01,0.9,0.36,1.4,1.22,1.41c2.63,0.04,5.26,0.05,7.9,0.04c0.73,0,1.16-0.34,1.14-1.19
		C287.06,424,287.09,422.09,287.09,420.17z M332.35,420.14C332.34,420.14,332.34,420.14,332.35,420.14c-0.01-1.76-0.02-3.51,0-5.27
		c0.02-1.3-0.2-1.53-1.48-1.53c-2.35,0.01-4.71,0.01-7.06,0c-1.43-0.01-1.67,0.22-1.67,1.65c0,3.47,0.01,6.94-0.02,10.41
		c-0.01,1.42,0.17,1.68,1.6,1.69c2.43,0.02,4.87-0.02,7.3,0.02c1,0.02,1.36-0.4,1.34-1.36
		C332.32,423.89,332.35,422.02,332.35,420.14z"/>
	<path d="M268.3,366.15c0.56,0.13,1.11,0.31,1.68,0.39c4.98,0.74,9.56-0.49,13.87-2.93c1.11-0.63,2.15-1.49,3.34-1.82
		c1.3-0.36,2.77-0.48,4.11-0.28c2.34,0.34,4.01-0.44,5.56-2.15c2.46-2.71,5.13-5.24,7.68-7.87c0.61-0.62,1.05-0.36,1.51,0.1
		c1.79,1.77,3.57,3.55,5.35,5.32c1.27,1.27,2.49,2.59,3.83,3.79c0.49,0.44,1.3,0.91,1.87,0.82c4.15-0.65,7.63,0.85,11.18,2.79
		c3.63,1.99,7.64,2.99,11.88,2.26c0.39-0.07,0.75-0.26,1.14-0.3c0.31-0.03,0.63,0.08,0.95,0.13c-0.1,0.31-0.11,0.81-0.31,0.91
		c-1.42,0.68-2.83,1.48-4.34,1.87c-8.28,2.18-16.77,1.9-25.22,2c-6.87,0.08-13.74,0.06-20.6-0.07c-4.35-0.08-8.73-0.17-13.02-0.78
		c-3.15-0.45-6.44-0.78-9.31-2.43c-0.56-0.32-0.99-0.85-1.48-1.29C268.08,366.46,268.19,366.31,268.3,366.15z M299.31,361.18
		c0.41,0.11,0.83,0.3,1.26,0.32c1.31,0.04,2.63,0.01,3.95,0.02c1.87,0.01,3.75,0.05,5.62,0.01c0.34-0.01,0.7-0.28,0.99-0.5
		c0.05-0.03-0.14-0.51-0.31-0.68c-1.45-1.48-2.9-2.96-4.41-4.38c-0.89-0.84-1.52-0.74-2.34,0.16c-0.43,0.47-0.89,0.91-1.32,1.37
		C301.63,358.68,300.53,359.86,299.31,361.18z"/>
	<path class="st0" d="M291.75,382.27c0,1.47-0.01,2.94,0,4.41c0.01,0.82-0.35,1.31-1.19,1.31c-2.07,0.01-4.14-0.01-6.21-0.01
		c-0.79,0-1.16-0.38-1.16-1.17c0.02-2.83,0-5.66,0.08-8.48c0.01-0.33,0.58-0.9,0.91-0.91c2.15-0.09,4.3-0.06,6.45-0.06
		c0.79,0,1,0.53,1,1.21c0.01,1.23,0,2.47,0,3.7C291.68,382.27,291.71,382.27,291.75,382.27z"/>
	<path class="st0" d="M295.7,382.57c0-1.35,0.04-2.71-0.01-4.06c-0.03-0.85,0.36-1.14,1.14-1.14c1.99-0.01,3.99-0.03,5.98-0.04
		c0.74-0.01,1.12,0.39,1.13,1.1c0.02,2.87,0.03,5.74,0.03,8.61c0,0.77-0.53,1.02-1.2,1.02c-1.99,0-3.99-0.02-5.98-0.02
		c-0.89,0-1.16-0.42-1.12-1.28c0.06-1.39,0.02-2.79,0.02-4.18C295.68,382.57,295.69,382.57,295.7,382.57z"/>
	<path class="st0" d="M315.43,382.72c0,1.32-0.03,2.63,0.01,3.95c0.03,0.89-0.29,1.36-1.22,1.35c-1.92-0.01-3.83-0.01-5.75-0.01
		c-0.96,0-1.34-0.46-1.32-1.41c0.04-2.67,0.04-5.35,0.01-8.02c-0.01-0.83,0.39-1.2,1.13-1.21c2.03-0.03,4.07-0.02,6.11-0.01
		c0.74,0.01,1.04,0.43,1.03,1.17c-0.02,1.4-0.01,2.79-0.01,4.19C315.42,382.72,315.42,382.72,315.43,382.72z"/>
	<path class="st0" d="M319.09,382.69c0-1.39,0.02-2.79-0.01-4.18c-0.02-0.83,0.36-1.16,1.15-1.16c1.95,0,3.91,0,5.86-0.02
		c0.74-0.01,1.13,0.3,1.14,1.05c0.04,2.79,0.11,5.58,0.11,8.36c0,0.83-0.46,1.3-1.37,1.28c-1.87-0.03-3.75-0.02-5.62,0
		c-0.96,0.01-1.34-0.39-1.27-1.39C319.16,385.32,319.09,384,319.09,382.69z"/>
	<path class="st0" d="M305.58,423.18c0-2.87,0.03-5.74-0.01-8.61c-0.01-0.87,0.48-1.16,1.17-1.17c1.91-0.05,3.83-0.04,5.74-0.03
		c0.8,0,0.95,0.55,0.95,1.23c0.01,3.91,0.04,7.81,0.06,11.72c0.01,1.79-0.03,3.59,0,5.38c0.01,0.9-0.27,1.3-1.25,1.27
		c-1.79-0.06-3.59-0.03-5.38-0.03c-0.79,0-1.3-0.21-1.29-1.14C305.59,428.92,305.58,426.05,305.58,423.18z"/>
	<path class="st0" d="M297.28,423.13c0-2.83,0.01-5.66-0.01-8.49c-0.01-0.83,0.32-1.28,1.19-1.28c1.6,0,3.19-0.02,4.79,0.02
		c1.38,0.04,1.54,0.3,1.54,1.63c0,5.42,0.02,10.85,0.06,16.27c0.01,1.32-0.21,1.62-1.57,1.64c-1.56,0.03-3.11-0.02-4.67,0.05
		c-0.93,0.04-1.3-0.28-1.29-1.22c0.03-2.87,0.01-5.74,0.01-8.61C297.32,423.13,297.3,423.13,297.28,423.13z"/>
	<path class="st0" d="M287.09,420.17c0,1.91-0.03,3.83,0.01,5.74c0.02,0.85-0.41,1.19-1.14,1.19c-2.63,0.01-5.26,0.01-7.9-0.04
		c-0.86-0.01-1.23-0.51-1.22-1.41c0.04-3.55,0.03-7.1,0.03-10.64c0-1.38,0.33-1.67,1.69-1.66c2.31,0.02,4.63,0.01,6.94-0.02
		c1.31-0.02,1.61,0.28,1.59,1.57C287.08,416.67,287.1,418.42,287.09,420.17C287.1,420.17,287.09,420.17,287.09,420.17z"/>
	<path class="st0" d="M332.35,420.14c0,1.88-0.02,3.75,0.01,5.63c0.02,0.96-0.34,1.37-1.34,1.36c-2.43-0.04-4.87,0-7.3-0.02
		c-1.43-0.01-1.62-0.27-1.6-1.69c0.03-3.47,0.03-6.94,0.02-10.41c0-1.43,0.23-1.66,1.67-1.65c2.35,0.01,4.71,0.01,7.06,0
		c1.28-0.01,1.5,0.23,1.48,1.53C332.32,416.63,332.34,418.39,332.35,420.14C332.34,420.14,332.34,420.14,332.35,420.14z"/>
	<path class="st0" d="M299.31,361.18c1.23-1.31,2.32-2.5,3.43-3.68c0.43-0.46,0.9-0.9,1.32-1.37c0.82-0.9,1.45-1,2.34-0.16
		c1.51,1.42,2.96,2.9,4.41,4.38c0.17,0.18,0.36,0.65,0.31,0.68c-0.29,0.22-0.65,0.49-0.99,0.5c-1.87,0.04-3.75,0-5.62-0.01
		c-1.32-0.01-2.63,0.03-3.95-0.02C300.14,361.48,299.72,361.29,299.31,361.18z"/>
</g>
</svg>
