<?xml version="1.0" encoding="utf-8"?>
<!-- Generator: Adobe Illustrator 24.1.1, SVG Export Plug-In . SVG Version: 6.00 Build 0)  -->
<svg version="1.1" id="Capa_1" xmlns="http://www.w3.org/2000/svg" xmlns:xlink="http://www.w3.org/1999/xlink" x="0px" y="0px"
	 viewBox="0 0 612 792" style="enable-background:new 0 0 612 792;" xml:space="preserve">
<style type="text/css">
	.st0{fill:#FFFFFF;}
</style>
<g>
	<path class="st0" d="M235,325c47.28,0,94.56,0,141.84,0c0,47.28,0,94.56,0,141.84c-47.28,0-94.56,0-141.84,0
		C235,419.56,235,372.28,235,325z M243.94,455.25c41.49,0,82.81,0,124.18,0c0-35.86,0-71.65,0-107.55
		c-0.48-0.02-0.91-0.06-1.34-0.06c-14.17,0-28.35,0.01-42.52-0.03c-1.24,0-1.52,0.35-1.52,1.54c0.04,17.85,0.03,35.7,0.02,53.54
		c0,0.5-0.05,1-0.08,1.5c-4.74,0-9.35,0-14.11,0c0-22.66,0-45.23,0-67.84c-15.14,0-30.13,0-45.27,0c0,0.58,0,1.09,0,1.6
		c0,14.01,0,28.03,0,42.04c0,1.65,0,1.65-1.6,1.65c-5.63,0-11.26,0-16.89,0c-0.46,0-0.91,0.05-1.45,0.08
		C243.56,406.3,243.75,430.73,243.94,455.25z"/>
	<path d="M243.94,455.25c-0.19-24.52-0.38-48.94-0.57-73.51c0.54-0.03,1-0.08,1.45-0.08c5.63-0.01,11.26,0,16.89,0
		c1.6,0,1.6,0,1.6-1.65c0-14.01,0-28.03,0-42.04c0-0.51,0-1.02,0-1.6c15.14,0,30.13,0,45.27,0c0,22.61,0,45.19,0,67.84
		c4.76,0,9.36,0,14.11,0c0.03-0.51,0.08-1.01,0.08-1.5c0-17.85,0.02-35.7-0.02-53.54c0-1.2,0.28-1.55,1.52-1.54
		c14.17,0.05,28.35,0.03,42.52,0.03c0.43,0,0.86,0.04,1.34,0.06c0,35.89,0,71.69,0,107.55
		C326.74,455.25,285.43,455.25,243.94,455.25z M328.45,401.55c0,15.57,0.01,31.15-0.02,46.72c0,1.03,0.24,1.38,1.33,1.36
		c3.87-0.06,7.75-0.06,11.62,0c1.03,0.01,1.28-0.35,1.26-1.31c-0.05-2.95,0.01-5.91-0.03-8.86c-0.01-0.87,0.22-1.24,1.14-1.18
		c1.07,0.07,2.16,0.08,3.23,0c1-0.08,1.21,0.34,1.19,1.24c-0.05,2.87,0.03,5.75-0.04,8.62c-0.03,1.12,0.25,1.52,1.44,1.5
		c3.83-0.07,7.67-0.06,11.5,0c1.07,0.02,1.42-0.25,1.42-1.38c-0.03-31.19-0.03-62.37,0-93.56c0-1.1-0.3-1.41-1.4-1.4
		c-10.38,0.04-20.76,0.05-31.15-0.01c-1.25-0.01-1.51,0.37-1.51,1.55C328.46,370.41,328.45,385.98,328.45,401.55z M283.24,449.61
		c0-0.59,0-1.01,0-1.44c-0.03-19.81-0.06-39.61-0.06-59.42c0-1.14-0.29-1.47-1.45-1.47c-10.38,0.05-20.76,0.05-31.15,0
		c-1.16-0.01-1.46,0.32-1.45,1.46c0.13,15.37,0.2,30.75,0.29,46.12c0.03,4.51,0.08,9.02,0.07,13.54c0,0.94,0.28,1.24,1.23,1.23
		c3.87-0.05,7.75-0.04,11.62-0.01c0.79,0.01,1.04-0.28,1.03-1.05c-0.03-2.44-0.01-4.87-0.01-7.31c0-0.95,0-1.89,0-2.97
		c1.57,0,2.96,0.06,4.34-0.02c0.97-0.05,1.22,0.31,1.21,1.23c-0.05,2.99-0.02,5.99-0.02,8.98c0,0.57-0.05,1.13,0.81,1.13
		C274.16,449.6,278.58,449.61,283.24,449.61z M302.91,404.24c0.02-0.47,0.06-0.83,0.06-1.18c0-19.92-0.01-39.83,0.03-59.75
		c0-1.08-0.33-1.32-1.36-1.32c-10.42,0.03-20.83,0.02-31.25-0.02c-1.08,0-1.43,0.26-1.43,1.39c0.04,12.29,0.04,24.59,0,36.88
		c0,1.2,0.39,1.45,1.5,1.44c5.63-0.05,11.25-0.03,16.88-0.02c0.46,0,0.93,0.04,1.54,0.07c0,7.57,0,15.01,0,22.51
		C293.63,404.24,298.2,404.24,302.91,404.24z M322.77,410.04c-11.41,0-22.61,0-33.83,0c-0.03,0.28-0.06,0.48-0.06,0.67
		c0.01,12.61,0.03,25.23,0.02,37.84c0,0.86,0.3,1.08,1.11,1.07c3.99-0.03,7.98-0.01,11.98-0.02c0.3,0,0.6-0.07,0.99-0.12
		c0-0.51,0-0.95,0-1.38c0-2.91,0.03-5.83-0.02-8.74c-0.01-0.84,0.26-1.13,1.1-1.08c1.11,0.06,2.24,0.07,3.35,0
		c0.93-0.06,1.25,0.22,1.23,1.2c-0.06,2.91-0.02,5.83-0.02,8.74c0,0.42,0,0.85,0,1.4c0.56,0,0.95,0,1.34,0
		c3.79,0,7.59-0.05,11.38,0.03c1.16,0.02,1.46-0.33,1.45-1.47c-0.04-12.26-0.02-24.51-0.02-36.77
		C322.77,410.97,322.77,410.54,322.77,410.04z"/>
	<path class="st0" d="M328.45,401.55c0-15.57,0.01-31.15-0.03-46.72c0-1.18,0.26-1.56,1.51-1.55c10.38,0.05,20.76,0.05,31.15,0.01
		c1.1,0,1.4,0.3,1.4,1.4c-0.03,31.19-0.03,62.37,0,93.56c0,1.13-0.35,1.4-1.42,1.38c-3.83-0.06-7.67-0.07-11.5,0
		c-1.19,0.02-1.47-0.38-1.44-1.5c0.07-2.87,0-5.75,0.04-8.62c0.01-0.9-0.19-1.32-1.19-1.24c-1.07,0.08-2.16,0.07-3.23,0
		c-0.92-0.06-1.16,0.32-1.14,1.18c0.04,2.95-0.02,5.91,0.03,8.86c0.02,0.96-0.23,1.33-1.26,1.31c-3.87-0.06-7.75-0.06-11.62,0
		c-1.08,0.02-1.33-0.33-1.33-1.36C328.46,432.7,328.45,417.12,328.45,401.55z M336.95,418.38c0,2.96,0,2.96,2.93,2.96
		c2.74,0,2.74,0,2.74-2.79c0-2.95,0-2.95-2.93-2.95C336.95,415.6,336.95,415.6,336.95,418.38z M339.85,370.37
		c-2.91,0-2.91,0-2.91,2.82c0,2.8,0,2.8,2.81,2.8c2.86,0,2.86,0,2.86-2.89C342.61,370.37,342.61,370.37,339.85,370.37z
		 M336.96,404.28c0,1.8-0.02,3.46,0.03,5.12c0.01,0.19,0.46,0.52,0.71,0.53c1.35,0.05,2.71,0.01,4.06,0.03
		c0.6,0.01,0.87-0.22,0.85-0.84c-0.03-1.35,0.03-2.71-0.04-4.06c-0.01-0.27-0.39-0.74-0.61-0.75
		C340.35,404.25,338.72,404.28,336.96,404.28z M339.73,432.62c2.89,0,2.89,0,2.89-2.88c0-0.08,0-0.16,0-0.24
		c0-2.62,0-2.62-2.66-2.62c-3.01,0-3.01,0-3.01,2.99C336.95,432.62,336.95,432.62,339.73,432.62z M336.96,387.3
		c1.75,0,3.33,0.04,4.91-0.04c0.26-0.01,0.69-0.49,0.71-0.77c0.08-1.35,0.08-2.7,0-4.05c-0.02-0.28-0.46-0.74-0.73-0.75
		c-1.39-0.08-2.78-0.06-4.17-0.01c-0.25,0.01-0.69,0.34-0.7,0.54C336.93,383.88,336.96,385.54,336.96,387.3z M348.35,418.44
		c0,0.04,0,0.08,0,0.12c0,2.78,0,2.78,2.73,2.78c2.81,0,2.81,0,2.81-2.85c0-2.89,0-2.89-2.75-2.89
		C348.35,415.6,348.35,415.6,348.35,418.44z M353.89,361.78c0-2.78,0-2.78-2.51-2.78c-3.04,0-3.04,0-3.04,3.07
		c0,2.65,0,2.65,2.61,2.65C353.89,364.72,353.89,364.72,353.89,361.78z M353.89,429.74c0-0.12,0-0.24,0-0.36c0-2.5,0-2.5-2.55-2.5
		c-2.99,0-2.99,0-2.99,2.99c0,2.75,0,2.75,2.65,2.75C353.89,432.62,353.89,432.62,353.89,429.74z M339.81,359.01
		c-2.87,0-2.87,0-2.87,2.78c0,2.86,0,2.86,2.92,2.86c2.75,0,2.75,0,2.75-2.79C342.61,359.01,342.61,359.01,339.81,359.01z
		 M353.88,370.47c-1.89,0-3.66,0-5.53,0c0,1.67-0.03,3.26,0.03,4.84c0.01,0.24,0.45,0.65,0.7,0.66c1.35,0.07,2.71,0.07,4.05,0
		c0.26-0.01,0.7-0.43,0.71-0.67C353.91,373.71,353.88,372.13,353.88,370.47z M348.3,381.66c0,1.77-0.03,3.36,0.03,4.94
		c0.01,0.24,0.44,0.66,0.7,0.67c1.35,0.07,2.71,0.07,4.06,0c0.28-0.02,0.74-0.46,0.76-0.73c0.08-1.39,0.07-2.79,0-4.18
		c-0.01-0.24-0.45-0.66-0.7-0.67C351.6,381.63,350.05,381.66,348.3,381.66z M348.35,404.28c0,1.8-0.04,3.39,0.04,4.97
		c0.01,0.25,0.5,0.66,0.79,0.68c1.27,0.08,2.55,0.01,3.82,0.04c0.68,0.02,0.91-0.28,0.89-0.93c-0.03-1.31,0.03-2.63-0.04-3.94
		c-0.02-0.29-0.44-0.77-0.7-0.79C351.61,404.24,350.07,404.28,348.35,404.28z M337.02,398.61c1.7,0,3.33,0.03,4.96-0.03
		c0.22-0.01,0.59-0.48,0.61-0.75c0.06-1.35,0.06-2.71,0-4.07c-0.01-0.26-0.33-0.71-0.52-0.72c-1.66-0.06-3.33-0.03-5.05-0.03
		C337.02,394.93,337.02,396.7,337.02,398.61z M348.29,398.61c1.76,0,3.35,0.03,4.93-0.03c0.23-0.01,0.62-0.46,0.63-0.73
		c0.06-1.35,0.07-2.71,0-4.06c-0.02-0.28-0.45-0.74-0.72-0.76c-1.35-0.08-2.71-0.08-4.06,0c-0.27,0.02-0.73,0.46-0.74,0.73
		C348.26,395.3,348.29,396.85,348.29,398.61z"/>
	<path class="st0" d="M283.24,449.61c-4.66,0-9.09-0.01-13.52,0.01c-0.87,0-0.81-0.55-0.81-1.13c0-2.99-0.03-5.99,0.02-8.98
		c0.01-0.92-0.24-1.28-1.21-1.23c-1.39,0.08-2.78,0.02-4.34,0.02c0,1.08,0,2.03,0,2.97c0,2.44-0.02,4.87,0.01,7.31
		c0.01,0.77-0.24,1.06-1.03,1.05c-3.87-0.03-7.75-0.04-11.62,0.01c-0.95,0.01-1.23-0.3-1.23-1.23c0.01-4.51-0.05-9.02-0.07-13.54
		c-0.09-15.37-0.17-30.75-0.29-46.12c-0.01-1.15,0.29-1.47,1.45-1.46c10.38,0.05,20.76,0.05,31.15,0c1.16-0.01,1.45,0.33,1.45,1.47
		c-0.01,19.81,0.03,39.61,0.06,59.42C283.24,448.59,283.24,449.02,283.24,449.61z M257.64,418.45c0,2.89,0,2.89,2.86,2.89
		c0.04,0,0.08,0,0.12,0c2.83,0,2.83,0,2.83-2.8c0-2.94,0-2.94-2.92-2.94C257.64,415.6,257.64,415.6,257.64,418.45z M257.64,404.32
		c0,1.75-0.02,3.38,0.03,5c0.01,0.21,0.42,0.58,0.65,0.59c1.47,0.05,2.94,0.05,4.41,0c0.24-0.01,0.67-0.36,0.68-0.56
		c0.06-1.66,0.03-3.31,0.03-5.02C261.47,404.32,259.65,404.32,257.64,404.32z M257.64,393.06c0,1.7-0.02,3.32,0.02,4.94
		c0.01,0.22,0.32,0.61,0.51,0.62c1.73,0.05,3.45,0.03,5.2,0.03c0-1.98,0-3.75,0-5.59C261.46,393.06,259.62,393.06,257.64,393.06z
		 M274.64,404.35c-1.89,0-3.65,0-5.45,0c0,1.88,0,3.68,0,5.59c1.67,0,3.25,0.02,4.83-0.02c0.21-0.01,0.58-0.34,0.59-0.53
		C274.66,407.73,274.64,406.07,274.64,404.35z M269.2,421.34c1.64,0,3.18,0.04,4.72-0.04c0.26-0.01,0.68-0.51,0.7-0.8
		c0.07-1.35,0.07-2.7,0.01-4.05c-0.01-0.29-0.36-0.79-0.57-0.8c-1.61-0.07-3.22-0.04-4.86-0.04
		C269.2,417.61,269.2,419.41,269.2,421.34z M269.11,392.98c0,1.79-0.03,3.42,0.04,5.05c0.01,0.22,0.48,0.59,0.76,0.6
		c1.31,0.06,2.63,0.06,3.95,0c0.28-0.01,0.75-0.39,0.76-0.61c0.07-1.63,0.04-3.25,0.04-4.9c-0.31-0.06-0.49-0.13-0.68-0.13
		C272.41,392.97,270.86,392.98,269.11,392.98z"/>
	<path class="st0" d="M302.91,404.24c-4.71,0-9.29,0-14.02,0c0-7.5,0-14.94,0-22.51c-0.62-0.03-1.08-0.07-1.54-0.07
		c-5.63,0-11.26-0.03-16.88,0.02c-1.11,0.01-1.51-0.25-1.5-1.44c0.04-12.29,0.04-24.59,0-36.88c0-1.13,0.35-1.39,1.43-1.39
		c10.42,0.04,20.83,0.05,31.25,0.02c1.03,0,1.36,0.24,1.36,1.32c-0.03,19.92-0.02,39.83-0.03,59.75
		C302.97,403.41,302.94,403.76,302.91,404.24z M277.5,353.3c1.77,0,3.36,0.04,4.95-0.04c0.25-0.01,0.65-0.53,0.67-0.83
		c0.07-1.31,0.07-2.63,0-3.95c-0.02-0.29-0.43-0.8-0.68-0.81c-1.43-0.08-2.87-0.06-4.31-0.01c-0.21,0.01-0.59,0.34-0.6,0.54
		C277.48,349.87,277.5,351.53,277.5,353.3z M277.49,361.74c0,2.9,0,2.9,2.86,2.9c0.04,0,0.08,0,0.12,0c2.69,0,2.69,0,2.69-2.71
		c0-2.95,0-2.95-2.92-2.95C277.49,358.98,277.49,358.98,277.49,361.74z M288.92,347.72c0,1.7-0.02,3.32,0.03,4.94
		c0.01,0.22,0.4,0.6,0.63,0.61c1.39,0.06,2.79,0.05,4.18,0.01c0.24-0.01,0.67-0.29,0.67-0.46c0.05-1.69,0.03-3.38,0.03-5.1
		C292.52,347.72,290.79,347.72,288.92,347.72z M294.48,361.89c0-2.91,0-2.91-2.83-2.91c-2.81,0-2.81,0-2.81,2.81
		c0,2.85,0,2.85,2.88,2.85C294.48,364.64,294.48,364.64,294.48,361.89z"/>
	<path class="st0" d="M322.77,410.04c0,0.5,0,0.93,0,1.36c0,12.26-0.01,24.51,0.02,36.77c0,1.14-0.29,1.49-1.45,1.47
		c-3.79-0.07-7.58-0.03-11.38-0.03c-0.39,0-0.78,0-1.34,0c0-0.55,0-0.97,0-1.4c0-2.91-0.04-5.83,0.02-8.74
		c0.02-0.97-0.3-1.26-1.23-1.2c-1.11,0.07-2.24,0.06-3.35,0c-0.84-0.05-1.11,0.24-1.1,1.08c0.04,2.91,0.02,5.83,0.02,8.74
		c0,0.43,0,0.86,0,1.38c-0.39,0.05-0.69,0.12-0.99,0.12c-3.99,0.01-7.98-0.01-11.98,0.02c-0.81,0.01-1.11-0.21-1.11-1.07
		c0.01-12.61-0.01-25.23-0.02-37.84c0-0.19,0.04-0.39,0.06-0.67C300.16,410.04,311.35,410.04,322.77,410.04z M302.97,415.61
		c-1.77,0-3.4-0.03-5.02,0.03c-0.22,0.01-0.6,0.47-0.61,0.74c-0.06,1.39-0.07,2.79,0.01,4.19c0.01,0.27,0.47,0.72,0.74,0.74
		c1.39,0.07,2.79,0.06,4.19,0.01c0.24-0.01,0.66-0.37,0.67-0.58C303,419.07,302.97,417.41,302.97,415.61z M308.63,415.61
		c0,1.8-0.02,3.47,0.03,5.13c0.01,0.21,0.43,0.57,0.67,0.58c1.39,0.06,2.79,0.07,4.19-0.01c0.27-0.01,0.73-0.47,0.74-0.74
		c0.08-1.39,0.07-2.79,0.01-4.19c-0.01-0.27-0.39-0.73-0.62-0.74C312.02,415.58,310.4,415.61,308.63,415.61z M302.88,432.62
		c0-2.02,0-3.83,0-5.73c-1.69,0-3.28-0.04-4.87,0.04c-0.25,0.01-0.66,0.51-0.67,0.8c-0.07,1.35-0.07,2.71,0,4.06
		c0.02,0.29,0.44,0.78,0.69,0.79C299.62,432.65,301.21,432.62,302.88,432.62z M308.68,432.62c1.72,0,3.31,0.02,4.9-0.02
		c0.24-0.01,0.66-0.29,0.67-0.46c0.05-1.73,0.03-3.46,0.03-5.16c-2,0-3.77,0-5.59,0C308.68,428.85,308.68,430.63,308.68,432.62z"/>
	<path d="M336.95,418.38c0-2.78,0-2.78,2.74-2.78c2.93,0,2.93,0,2.93,2.95c0,2.79,0,2.79-2.74,2.79
		C336.95,421.34,336.95,421.34,336.95,418.38z"/>
	<path d="M339.85,370.37c2.76,0,2.76,0,2.76,2.74c0,2.89,0,2.89-2.86,2.89c-2.81,0-2.81,0-2.81-2.8
		C336.95,370.37,336.95,370.37,339.85,370.37z"/>
	<path d="M336.96,404.28c1.76,0,3.39-0.03,5.01,0.03c0.22,0.01,0.6,0.48,0.61,0.75c0.06,1.35,0.01,2.71,0.04,4.06
		c0.01,0.62-0.25,0.85-0.85,0.84c-1.35-0.02-2.71,0.02-4.06-0.03c-0.25-0.01-0.71-0.34-0.71-0.53
		C336.93,407.74,336.96,406.08,336.96,404.28z"/>
	<path d="M339.73,432.62c-2.78,0-2.78,0-2.78-2.75c0-2.99,0-2.99,3.01-2.99c2.66,0,2.66,0,2.66,2.62c0,0.08,0,0.16,0,0.24
		C342.61,432.62,342.61,432.62,339.73,432.62z"/>
	<path d="M336.96,387.3c0-1.77-0.02-3.42,0.03-5.08c0.01-0.2,0.45-0.53,0.7-0.54c1.39-0.05,2.78-0.07,4.17,0.01
		c0.27,0.01,0.71,0.48,0.73,0.75c0.08,1.35,0.08,2.7,0,4.05c-0.02,0.28-0.45,0.76-0.71,0.77C340.29,387.34,338.7,387.3,336.96,387.3
		z"/>
	<path d="M348.35,418.44c0-2.84,0-2.84,2.79-2.84c2.75,0,2.75,0,2.75,2.89c0,2.85,0,2.85-2.81,2.85c-2.73,0-2.73,0-2.73-2.78
		C348.35,418.52,348.35,418.48,348.35,418.44z"/>
	<path d="M353.89,361.78c0,2.94,0,2.94-2.93,2.94c-2.61,0-2.61,0-2.61-2.65c0-3.07,0-3.07,3.04-3.07
		C353.89,359,353.89,359,353.89,361.78z"/>
	<path d="M353.89,429.74c0,2.88,0,2.88-2.89,2.88c-2.65,0-2.65,0-2.65-2.75c0-2.99,0-2.99,2.99-2.99c2.55,0,2.55,0,2.55,2.5
		C353.89,429.5,353.89,429.62,353.89,429.74z"/>
	<path d="M339.81,359.01c2.8,0,2.8,0,2.8,2.85c0,2.79,0,2.79-2.75,2.79c-2.92,0-2.92,0-2.92-2.86
		C336.95,359.01,336.95,359.01,339.81,359.01z"/>
	<path d="M353.88,370.47c0,1.66,0.03,3.25-0.03,4.83c-0.01,0.24-0.45,0.66-0.71,0.67c-1.35,0.07-2.71,0.07-4.05,0
		c-0.25-0.01-0.69-0.42-0.7-0.66c-0.06-1.58-0.03-3.17-0.03-4.84C350.22,370.47,351.99,370.47,353.88,370.47z"/>
	<path d="M348.3,381.66c1.75,0,3.3-0.03,4.85,0.03c0.25,0.01,0.69,0.42,0.7,0.67c0.07,1.39,0.07,2.79,0,4.18
		c-0.01,0.27-0.48,0.72-0.76,0.73c-1.35,0.08-2.71,0.07-4.06,0c-0.25-0.01-0.69-0.43-0.7-0.67
		C348.27,385.02,348.3,383.43,348.3,381.66z"/>
	<path d="M348.35,404.28c1.72,0,3.26-0.04,4.8,0.04c0.25,0.01,0.68,0.5,0.7,0.79c0.08,1.31,0.01,2.63,0.04,3.94
		c0.02,0.65-0.21,0.95-0.89,0.93c-1.27-0.03-2.55,0.03-3.82-0.04c-0.29-0.02-0.78-0.43-0.79-0.68
		C348.31,407.67,348.35,406.08,348.35,404.28z"/>
	<path d="M337.02,398.61c0-1.9,0-3.68,0-5.61c1.72,0,3.38-0.02,5.05,0.03c0.19,0.01,0.51,0.46,0.52,0.72c0.05,1.35,0.06,2.71,0,4.07
		c-0.01,0.27-0.39,0.74-0.61,0.75C340.35,398.64,338.72,398.61,337.02,398.61z"/>
	<path d="M348.29,398.61c0-1.76-0.04-3.31,0.03-4.85c0.01-0.27,0.47-0.71,0.74-0.73c1.35-0.08,2.71-0.08,4.06,0
		c0.26,0.02,0.7,0.48,0.72,0.76c0.07,1.35,0.07,2.71,0,4.06c-0.01,0.26-0.4,0.72-0.63,0.73
		C351.64,398.64,350.05,398.61,348.29,398.61z"/>
	<path d="M257.64,418.45c0-2.85,0-2.85,2.89-2.85c2.92,0,2.92,0,2.92,2.94c0,2.8,0,2.8-2.83,2.8c-0.04,0-0.08,0-0.12,0
		C257.64,421.34,257.64,421.34,257.64,418.45z"/>
	<path d="M257.64,404.32c2.01,0,3.82,0,5.8,0c0,1.71,0.02,3.37-0.03,5.02c-0.01,0.2-0.43,0.56-0.68,0.56
		c-1.47,0.05-2.94,0.05-4.41,0c-0.23-0.01-0.64-0.38-0.65-0.59C257.62,407.7,257.64,406.08,257.64,404.32z"/>
	<path d="M257.64,393.06c1.97,0,3.82,0,5.73,0c0,1.84,0,3.61,0,5.59c-1.75,0-3.48,0.02-5.2-0.03c-0.18-0.01-0.5-0.4-0.51-0.62
		C257.62,396.38,257.64,394.76,257.64,393.06z"/>
	<path d="M274.64,404.35c0,1.72,0.02,3.38-0.03,5.04c-0.01,0.19-0.38,0.52-0.59,0.53c-1.58,0.04-3.16,0.02-4.83,0.02
		c0-1.91,0-3.71,0-5.59C270.99,404.35,272.75,404.35,274.64,404.35z"/>
	<path d="M269.2,421.34c0-1.92,0-3.73,0-5.73c1.64,0,3.25-0.03,4.86,0.04c0.21,0.01,0.56,0.51,0.57,0.8
		c0.06,1.35,0.07,2.71-0.01,4.05c-0.02,0.29-0.44,0.79-0.7,0.8C272.38,421.38,270.83,421.34,269.2,421.34z"/>
	<path d="M269.11,392.98c1.75,0,3.3,0,4.85,0.01c0.19,0,0.38,0.07,0.68,0.13c0,1.65,0.03,3.28-0.04,4.9
		c-0.01,0.22-0.49,0.6-0.76,0.61c-1.31,0.06-2.63,0.06-3.95,0c-0.27-0.01-0.75-0.38-0.76-0.6
		C269.08,396.4,269.11,394.77,269.11,392.98z"/>
	<path d="M277.5,353.3c0-1.77-0.02-3.43,0.03-5.09c0.01-0.19,0.38-0.53,0.6-0.54c1.43-0.05,2.87-0.07,4.31,0.01
		c0.25,0.01,0.67,0.51,0.68,0.81c0.07,1.31,0.07,2.63,0,3.95c-0.02,0.3-0.42,0.81-0.67,0.83C280.87,353.34,279.27,353.3,277.5,353.3
		z"/>
	<path d="M277.49,361.74c0-2.76,0-2.76,2.75-2.76c2.92,0,2.92,0,2.92,2.95c0,2.71,0,2.71-2.69,2.71c-0.04,0-0.08,0-0.12,0
		C277.49,364.64,277.49,364.64,277.49,361.74z"/>
	<path d="M288.92,347.72c1.87,0,3.61,0,5.54,0c0,1.72,0.02,3.41-0.03,5.1c0,0.17-0.43,0.45-0.67,0.46
		c-1.39,0.04-2.79,0.05-4.18-0.01c-0.23-0.01-0.63-0.39-0.63-0.61C288.89,351.04,288.92,349.42,288.92,347.72z"/>
	<path d="M294.48,361.89c0,2.75,0,2.75-2.76,2.75c-2.88,0-2.88,0-2.88-2.85c0-2.81,0-2.81,2.81-2.81
		C294.48,358.98,294.48,358.98,294.48,361.89z"/>
	<path d="M302.97,415.61c0,1.8,0.02,3.46-0.03,5.13c-0.01,0.21-0.43,0.57-0.67,0.58c-1.39,0.06-2.79,0.07-4.19-0.01
		c-0.27-0.01-0.73-0.47-0.74-0.74c-0.08-1.39-0.07-2.79-0.01-4.19c0.01-0.27,0.39-0.73,0.61-0.74
		C299.58,415.58,301.2,415.61,302.97,415.61z"/>
	<path d="M308.63,415.61c1.77,0,3.4-0.03,5.02,0.03c0.22,0.01,0.6,0.47,0.62,0.74c0.06,1.39,0.07,2.79-0.01,4.19
		c-0.01,0.27-0.47,0.73-0.74,0.74c-1.39,0.08-2.79,0.06-4.19,0.01c-0.24-0.01-0.66-0.37-0.67-0.58
		C308.6,419.07,308.63,417.41,308.63,415.61z"/>
	<path d="M302.88,432.62c-1.67,0-3.26,0.04-4.85-0.04c-0.25-0.01-0.67-0.51-0.69-0.79c-0.07-1.35-0.07-2.71,0-4.06
		c0.02-0.29,0.43-0.79,0.67-0.8c1.59-0.07,3.18-0.04,4.87-0.04C302.88,428.79,302.88,430.6,302.88,432.62z"/>
	<path d="M308.68,432.62c0-1.98,0-3.76,0-5.64c1.83,0,3.6,0,5.59,0c0,1.7,0.02,3.43-0.03,5.16c0,0.17-0.43,0.45-0.67,0.46
		C311.99,432.64,310.4,432.62,308.68,432.62z"/>
</g>
</svg>
