<?xml version="1.0" encoding="utf-8"?>
<!-- Generator: Adobe Illustrator 24.1.1, SVG Export Plug-In . SVG Version: 6.00 Build 0)  -->
<svg version="1.1" id="Capa_1" xmlns="http://www.w3.org/2000/svg" xmlns:xlink="http://www.w3.org/1999/xlink" x="0px" y="0px"
	 viewBox="0 0 612 792" style="enable-background:new 0 0 612 792;" xml:space="preserve">
<style type="text/css">
	.st0{fill:#FFFFFF;}
</style>
<g>
	<path class="st0" d="M376.84,466.84c-47.27,0-94.55,0-141.84,0c0-47.27,0-94.55,0-141.84c47.26,0,94.53,0,141.84,0
		C376.84,372.27,376.84,419.55,376.84,466.84z M322.62,395.57c0.25,0.55,0.49,1.06,0.7,1.57c7.79,18.73,15.58,37.46,23.37,56.18
		c1.36,3.27,2.7,6.56,4.09,9.82c0.79,1.86,2.57,2.47,3.95,1.28c3.87-3.36,6.06-7.61,5.5-12.78c-0.89-8.33-2.08-16.63-3.17-24.93
		c-0.09-0.68,0.12-1.08,0.61-1.53c1.33-1.21,2.75-2.37,3.83-3.78c1.52-1.97,2.78-4.15,4.14-6.24c0.37-0.56,0.18-1-0.3-1.45
		c-1.27-1.22-2.48-2.49-3.73-3.73c-1.35-1.34-1.36-1.37-3.1-0.43c-1.06,0.57-2.07,1.25-3.16,1.92c-0.5-4.12-0.8-8.16-1.54-12.11
		c-0.49-2.62,0.07-4.52,2.25-5.99c0.36-0.24,0.67-0.59,0.92-0.94c1.4-2.03,2.78-4.06,4.14-6.12c0.47-0.71,0.36-1.32-0.33-1.96
		c-1.4-1.3-2.74-2.68-4.05-4.08c-0.49-0.52-0.96-0.64-1.57-0.38c-1.05,0.46-2.09,0.93-3.41,1.53c-0.28-4.24-0.7-8.37-0.76-12.49
		c-0.04-2.74,1.08-5.1,3.23-7.05c2.77-2.52,5.23-5.39,7.93-7.99c6.49-6.24,10.39-13.84,12.16-22.6c0.08-0.41,0.11-0.87,0.02-1.28
		c-0.66-2.98-2.81-4.29-5.85-3.63c-7.87,1.72-14.78,5.2-20.44,11.03c-3.14,3.24-6.46,6.3-9.56,9.58c-1.44,1.53-3.14,2.31-5.09,2.63
		c-1.29,0.21-2.63,0.29-3.93,0.21c-2.39-0.15-4.77-0.44-7.15-0.7c-1.6-0.18-3.2-0.41-4.79-0.62c0.8-1.52,1.53-2.92,2.28-4.32
		c0.35-0.66,0.24-1.15-0.32-1.67c-0.94-0.86-1.82-1.79-2.71-2.71c-2.44-2.49-2.44-2.49-5.4-0.64c-2.95,1.85-5.33,4.31-7.53,6.96
		c-0.47,0.57-0.93,0.75-1.63,0.65c-1.98-0.28-3.96-0.5-5.94-0.76c-2.5-0.32-5.01-0.65-7.62-0.99c0.57-0.84,1.08-1.51,1.5-2.22
		c0.44-0.75,0.81-1.55,1.21-2.33c0.39-0.75,0.34-1.35-0.37-1.97c-1.02-0.89-1.93-1.91-2.88-2.88c-2.09-2.13-2.09-2.13-4.65-0.62
		c-3.32,1.96-5.96,4.67-8.31,7.67c-0.48,0.61-0.93,0.84-1.7,0.74c-7.16-0.93-14.35-1.69-21.49-2.76c-5.46-0.82-9.9,0.88-13.68,4.67
		c-2.05,2.05-1.64,3.93,1.03,5.07c20.51,8.71,41.02,17.41,61.54,26.12c1.6,0.68,3.19,1.38,4.81,2.07c-1.2,2.5-2.19,4.9-4.19,6.77
		c-2.34,2.17-4.5,4.53-6.68,6.87c-5.54,5.91-11.22,11.71-15.82,18.43c-0.19,0.28-0.71,0.51-1.06,0.48
		c-6.61-0.48-13.22-0.94-19.82-1.55c-6.29-0.58-12.16,0.38-17.47,3.99c-0.99,0.67-1.75,1.4-1.62,2.69c0.13,1.28,0.98,1.91,2.09,2.36
		c7.23,2.95,14.46,5.92,21.69,8.88c1.2,0.49,2.4,1,3.61,1.5c-1.79,3.12-1.88,4.2-0.23,5.77c0.78,0.74,1.77,1.65,2.72,1.73
		c1.22,0.1,2.49-0.57,3.84-0.93c-0.01-0.02,0.11,0.23,0.21,0.48c3.34,8.28,6.68,16.55,10.01,24.84c0.43,1.07,1.02,1.93,2.25,2.04
		c1.21,0.1,1.99-0.56,2.64-1.53c3.25-4.91,4.61-10.28,4.14-16.14c-0.55-6.84-1.02-13.69-1.59-20.54c-0.11-1.27,0.06-2.19,1.33-2.8
		c0.78-0.37,1.43-1.01,2.12-1.55c7.72-6.18,14.74-13.11,21.63-20.16C317.5,398.15,319.79,396.65,322.62,395.57z"/>
	<path d="M322.62,395.57c-2.83,1.08-5.11,2.58-7.15,4.67c-6.9,7.05-13.92,13.98-21.63,20.16c-0.68,0.55-1.34,1.18-2.12,1.55
		c-1.27,0.61-1.44,1.53-1.33,2.8c0.57,6.84,1.05,13.69,1.59,20.54c0.47,5.86-0.89,11.23-4.14,16.14c-0.64,0.97-1.43,1.64-2.64,1.53
		c-1.23-0.11-1.83-0.97-2.25-2.04c-3.32-8.28-6.67-16.56-10.01-24.84c-0.1-0.25-0.22-0.5-0.21-0.48c-1.35,0.36-2.63,1.03-3.84,0.93
		c-0.95-0.08-1.94-0.99-2.72-1.73c-1.65-1.57-1.56-2.65,0.23-5.77c-1.21-0.5-2.41-1.01-3.61-1.5c-7.23-2.97-14.45-5.94-21.69-8.88
		c-1.11-0.45-1.96-1.07-2.09-2.36c-0.13-1.3,0.63-2.02,1.62-2.69c5.31-3.62,11.18-4.58,17.47-3.99c6.6,0.61,13.21,1.06,19.82,1.55
		c0.35,0.03,0.87-0.2,1.06-0.48c4.6-6.72,10.28-12.52,15.82-18.43c2.18-2.33,4.35-4.69,6.68-6.87c2.01-1.87,3-4.27,4.19-6.77
		c-1.62-0.7-3.21-1.4-4.81-2.07c-20.51-8.71-41.02-17.42-61.54-26.12c-2.67-1.13-3.09-3.02-1.03-5.07
		c3.78-3.78,8.22-5.48,13.68-4.67c7.14,1.07,14.33,1.83,21.49,2.76c0.77,0.1,1.22-0.14,1.7-0.74c2.35-3,4.99-5.72,8.31-7.67
		c2.57-1.51,2.57-1.51,4.65,0.62c0.95,0.97,1.86,1.99,2.88,2.88c0.71,0.62,0.76,1.22,0.37,1.97c-0.4,0.78-0.76,1.58-1.21,2.33
		c-0.42,0.71-0.93,1.38-1.5,2.22c2.61,0.34,5.12,0.67,7.62,0.99c1.98,0.25,3.96,0.48,5.94,0.76c0.7,0.1,1.17-0.09,1.63-0.65
		c2.2-2.66,4.58-5.12,7.53-6.96c2.96-1.86,2.96-1.85,5.4,0.64c0.89,0.91,1.77,1.85,2.71,2.71c0.57,0.52,0.68,1.01,0.32,1.67
		c-0.75,1.4-1.48,2.81-2.28,4.32c1.58,0.21,3.18,0.44,4.79,0.62c2.38,0.26,4.76,0.55,7.15,0.7c1.3,0.08,2.64,0,3.93-0.21
		c1.95-0.32,3.65-1.1,5.09-2.63c3.1-3.28,6.41-6.35,9.56-9.58c5.66-5.83,12.57-9.31,20.44-11.03c3.03-0.66,5.19,0.64,5.85,3.63
		c0.09,0.41,0.07,0.87-0.02,1.28c-1.78,8.76-5.68,16.36-12.16,22.6c-2.7,2.6-5.16,5.47-7.93,7.99c-2.15,1.96-3.27,4.32-3.23,7.05
		c0.06,4.13,0.48,8.25,0.76,12.49c1.32-0.59,2.36-1.07,3.41-1.53c0.61-0.26,1.08-0.14,1.57,0.38c1.31,1.4,2.64,2.78,4.05,4.08
		c0.68,0.63,0.79,1.25,0.33,1.96c-1.35,2.05-2.74,4.09-4.14,6.12c-0.25,0.36-0.56,0.7-0.92,0.94c-2.18,1.48-2.73,3.37-2.25,5.99
		c0.73,3.95,1.04,7.99,1.54,12.11c1.1-0.67,2.1-1.34,3.16-1.92c1.74-0.94,1.76-0.92,3.1,0.43c1.24,1.24,2.46,2.51,3.73,3.73
		c0.47,0.45,0.66,0.89,0.3,1.45c-1.36,2.09-2.62,4.27-4.14,6.24c-1.09,1.41-2.51,2.57-3.83,3.78c-0.49,0.45-0.7,0.84-0.61,1.53
		c1.09,8.31,2.28,16.61,3.17,24.93c0.55,5.17-1.63,9.42-5.5,12.78c-1.38,1.2-3.16,0.58-3.95-1.28c-1.39-3.26-2.73-6.55-4.09-9.82
		c-7.79-18.73-15.58-37.46-23.37-56.18C323.1,396.62,322.86,396.12,322.62,395.57z"/>
</g>
</svg>
